<svg xmlns="http://www.w3.org/2000/svg" width="32" height="27.347" viewBox="12759 12540.62 32 27.347"><g data-name="address"><path d="m12768.452 12560.501 8.396 4.665v-19.797l-8.396-4.664v19.796Zm0 0" fill="#ef1f75" fill-rule="evenodd" data-name="Path 5038"/><path d="M12781.773 12561.558a5.291 5.291 0 0 1 1.528-3.384 4.946 4.946 0 0 1 2.999-1.438v-15.066l-8.396 3.732v19.848l4.106-1.824a4.966 4.966 0 0 1-.237-1.868Zm0 0" fill="#ef1f75" fill-rule="evenodd" data-name="Path 5039"/><path d="m12759 12564.2 8.396-3.731v-19.849l-8.396 3.732v19.848Zm0 0" fill="#ef1f75" fill-rule="evenodd" data-name="Path 5040"/><path d="M12788.645 12561.533c0-1.034-.81-1.872-1.81-1.872-1.001 0-1.812.838-1.812 1.872 0 1.033.81 1.872 1.811 1.872 1 0 1.81-.839 1.81-1.872Zm0 0" fill="#ef1f75" fill-rule="evenodd" data-name="Path 5041"/><path d="M12790.992 12561.619a4.386 4.386 0 0 0-1.266-2.806 4.083 4.083 0 0 0-5.783 0 4.388 4.388 0 0 0-1.267 2.806c-.036.573.049 1.149.25 1.688.213.566.54 1.083.96 1.52l2.948 3.14 2.949-3.14c.42-.437.746-.954.96-1.52a4.1 4.1 0 0 0 .249-1.688Zm-4.158 2.691c-1.498 0-2.716-1.246-2.716-2.777 0-1.531 1.218-2.777 2.716-2.777 1.498 0 2.716 1.246 2.716 2.777 0 1.531-1.218 2.777-2.716 2.777Zm0 0" fill="#ef1f75" fill-rule="evenodd" data-name="Path 5042"/></g></svg>