<svg xmlns="http://www.w3.org/2000/svg" width="533.76" height="604.822" viewBox="4003 2748.553 533.76 604.822"><g data-name="Group 4163"><g data-name="Group 4032"><g data-name="Group 4009"><g data-name="Group 4006"><g data-name="Group 4005"><path d="M4031.902 2765.465h390.41v320.075h-390.41v-320.075z" fill="#c0bff5" fill-rule="evenodd" data-name="Rectangle 2193"/><path d="m4125.614 2765.465-93.712 139.459v120.346l179.958-259.805h-86.246Z" fill="#fff" fill-rule="evenodd" data-name="Path 4981"/><path d="m4300.006 2765.465-195.404 320.75h26.069l196.19-320.75h-26.855Z" fill="#fff" fill-rule="evenodd" data-name="Path 4982"/><path d="m4422.312 2765.465-170.421 320.75 170.421-.675v-320.075Z" fill="#fff" fill-rule="evenodd" data-name="Path 4983"/></g><path d="M4229.92 2765.465v320.75" stroke-linejoin="round" stroke-linecap="round" stroke-width="1.958" stroke="#fff" fill="transparent" data-name="Line 176"/></g><g data-name="Group 4008"><path d="M4003 3076.26h438.368v13.078H4003v-13.077z" fill="#2d2d2d" fill-rule="evenodd" data-name="Rectangle 2194"/><g data-name="Group 4007"><path d="M4298.31 2748.553c.08.077-4.594 82.137 124.724 201.735 0 0-72.207 135.252-81.733 279.925h102.937v-481.66H4298.31Z" fill="#fff" fill-rule="evenodd" data-name="Path 4984"/><path d="M4444.239 2966.775h-24.358a8.639 8.639 0 0 1 0-17.276h24.358v17.276Z" fill="#f7a742" fill-rule="evenodd" data-name="Path 4985"/></g></g></g><g data-name="Group 4031"><g data-name="Group 4021"><g data-name="Group 4014"><g data-name="Group 4011"><g data-name="Group 4010"><path d="M4281.264 3006.992c-.402 2.148-6.625 71.518-6.625 71.518l12.69.258 18.1-69.278-24.165-2.498Z" fill="#ebada1" fill-rule="evenodd" data-name="Path 4986"/><path d="m4287.697 3077.861-1.12 11.578c-.488 5.055-.741 8.888-5.057 12.242-4.509 3.507-10.927 6.048-18.252 1.683-14.264-8.494 4.273-13.207 4.273-13.207s-2.398-10.05 7.475-18.97l12.68 6.674Z" fill="#ebada1" fill-rule="evenodd" data-name="Path 4987"/></g></g><g data-name="Group 4013"><g data-name="Group 4012"><path d="m4280.77 3010.72-14.812-50.364 30.868-4.146 8.583 49.963c1.235 7.194-5.416 13.52-13.551 12.885-5.301-.413-9.738-3.75-11.088-8.339Z" fill="#ebada1" fill-rule="evenodd" data-name="Path 4988"/></g><path d="M4284.59 2921.848s19.303 7.219 20.969 50.371l-31.956 4.193 10.987-54.564Z" fill="#ff6f92" fill-rule="evenodd" data-name="Path 4989"/></g></g><g data-name="Group 4015"><path d="M4260.899 2912.937s23.561 4.916 25.442 11.47c1.884 6.552-13.212 88.638-13.212 88.638l-61.456.707-13.413-95.31 19.13-4.905 43.509-.6Z" fill="#ff6f92" fill-rule="evenodd" data-name="Path 4990"/><path d="m4279.702 2975.61 3.509-24.934" stroke-linejoin="round" stroke-linecap="round" stroke-width=".748" stroke="#ee517e" fill="transparent" data-name="Line 178"/><path d="M4204.798 2941.9s-17.405 18 2.272 39.15l-2.272-39.15Z" fill="#ff6f92" fill-rule="evenodd" data-name="Path 4991"/></g><g data-name="Group 4020"><g data-name="Group 4017"><path d="m4133.352 2949.148 54.395-21.281 8.207 30.117-54.673 15.042c-7.872 2.165-15.694-3.618-15.932-11.78a12.595 12.595 0 0 1 8.003-12.098Z" fill="#ebada1" fill-rule="evenodd" data-name="Path 4992"/><g data-name="Group 4016"><path d="m4198.26 2918.442-35.898 14.314 13.937 41.811 41.09-13.937-19.13-42.188Z" fill="#ff6f92" fill-rule="evenodd" data-name="Path 4993"/><path d="m4217.39 2960.63-18.715 6.348" stroke-linejoin="round" stroke-linecap="round" stroke-width=".748" stroke="#ee517e" fill="transparent" data-name="Line 179"/></g></g><g data-name="Group 4019"><path d="M4167.398 2858.548s-40.547 5.878-63.56 23.654c-23.014 17.772 27.826 48.393 46.482 33.84 18.657-14.554 38.773-50.771 17.078-57.494Z" fill="#fff" fill-rule="evenodd" data-name="Path 4994"/><g data-name="Group 4018"><path d="M4151.94 2956.764c.244-2.435-.867-75.246-.867-75.246l-12.684.549-13.04 79.18 26.591-4.483Z" fill="#ebada1" fill-rule="evenodd" data-name="Path 4995"/><path d="m4138.09 2883.104.262-13.032c.115-5.692.083-9.999 4.143-14.04 4.239-4.22 10.456-7.489 18.086-3.086 14.86 8.571-3.288 15.067-3.288 15.067s3.136 11.093-6.057 21.73l-13.146-6.64Z" fill="#ebada1" fill-rule="evenodd" data-name="Path 4996"/></g></g></g></g><g data-name="Group 4024"><path d="m4249.81 2887.519 2.802 28.324-26.918-.68-1.952-29.324 26.068 1.68Z" fill="#ebada1" fill-rule="evenodd" data-name="Path 4997"/><path d="M4207.88 2843.966s-7.108 11.59-3.283 31.884c3.828 20.294 11.257 23.03 22.534 19.71l10.642-16.296-29.893-35.298Z" fill="#ebada1" fill-rule="evenodd" data-name="Path 4998"/><path d="M4218.918 2869.83s-5.473 3.4-7.09-9.852c0 0-13.571-5.844-10.835-19.32 2.734-13.477 21.615-14.117 21.615-14.117s37.501-9.982 42.047 21.592c0 0 4.368 19.349-14.847 39.387l-20.853-.853-4.701-16.75-5.336-.086Z" fill="#452c14" fill-rule="evenodd" data-name="Path 4999"/><g data-name="Group 4022"><path d="M4231.04 2866.747c.12 4.792-2.944 8.755-6.847 8.856-3.905.097-7.167-3.705-7.288-8.497-.12-4.793 2.943-8.759 6.846-8.856 3.903-.101 7.165 3.704 7.288 8.497Z" fill="#ebada1" fill-rule="evenodd" data-name="Path 5000"/></g><path d="M4206.062 2868.315c-.017.192-3.833 6.059-4.89 8.462-.345.784.143 1.675 1.09 1.996l4.478 1.516-.678-11.974Z" fill="#ebada1" fill-rule="evenodd" data-name="Path 5001"/><path d="m4249.573 2909.072 11.326 3.865s.735 6.938-17.738 7.242c-18.47.305-25.77-6.642-25.77-6.642l12.962-4.577 19.22.112Z" fill="#ebada1" fill-rule="evenodd" data-name="Path 5002"/><g data-name="Group 4023"><path d="M4262.303 2845.18s-12.988 1.16-13.58 13.707c-.592 12.543 10.24 13.279 10.24 13.279l3.34-26.985Z" fill="#ff6f92" fill-rule="evenodd" data-name="Path 5003"/><path d="M4252.735 2858.132c-1.071 10.418 6.507 19.734 16.925 20.808 10.421 1.074 19.737-6.505 20.811-16.926 1.071-10.418-6.504-19.737-16.925-20.808-10.422-1.074-19.737 6.505-20.811 16.926Z" fill="#452c14" fill-rule="evenodd" data-name="Path 5004"/></g><path d="m4224.435 2896.247-.463-6.952-7.13 7.073s3.124.878 7.593-.12Z" fill="#dd978b" fill-rule="evenodd" data-name="Path 5005"/></g><g data-name="Group 4030"><g data-name="Group 4026"><path d="m4146.73 3329.454 8.357-46.809 25.737 3.391-8.974 50.37-24.62-4.367-.5-2.585Z" fill="#f9b8b2" fill-rule="evenodd" data-name="Path 5006"/><g data-name="Group 4025"><path d="M4175.439 3324.144s-20.478 8.423-30.098-4.853l-49.748 25.612 86.195-.505-6.35-20.254Z" fill="#0a1a3b" fill-rule="evenodd" data-name="Path 5007"/><path d="m4095.643 3352.142 86.195-.506-.051-7.24-86.195.507.05 7.24Z" fill="#fff" fill-rule="evenodd" data-name="Path 5008"/></g></g><g data-name="Group 4028"><path d="m4287.42 3329.454.238-46.809-25.737 3.391.38 50.37 24.62-4.367.5-2.585Z" fill="#f9b8b2" fill-rule="evenodd" data-name="Path 5009"/><g data-name="Group 4027"><path d="M4258.71 3324.144s20.478 8.423 30.098-4.853l49.751 25.612-86.195-.505 6.346-20.254Z" fill="#0a1a3b" fill-rule="evenodd" data-name="Path 5010"/><path d="m4338.507 3352.142-86.195-.506.052-7.24 86.194.507-.05 7.24Z" fill="#fff" fill-rule="evenodd" data-name="Path 5011"/></g></g><g data-name="Group 4029"><path d="M4273.129 3013.045s24.854 27.022 26.361 77.08c1.51 50.056-4.77 218.062-4.77 218.062l-40.757 1.998-1.234-123.228-3.684-107.634h-3.63s-24.42 102.606-26.434 111.66c-2.013 9.052-33.187 119.202-33.187 119.202l-41.668-3.52 25.635-134.293s15.07-74.806 19.217-93.552c9.281-41.952 22.695-65.068 22.695-65.068l61.456-.707Z" fill="#454380" fill-rule="evenodd" data-name="Path 5012"/><path d="M4230.172 3080.196h36.614" stroke-linejoin="round" stroke-linecap="round" stroke-width=".748" stroke="#2f2d68" fill="transparent" data-name="Line 180"/><path d="M4212.994 3036.392v19.963l12.764 5.66 13.66-6.504v-19.082l-26.424-.037Z" stroke-linejoin="round" stroke-linecap="round" stroke-width=".686" stroke="#2f2d68" fill="transparent" data-name="Path 5013"/><path d="M4252.625 3036.392v19.963l12.762 5.66 13.66-6.504v-19.082l-26.422-.037Z" stroke-linejoin="round" stroke-linecap="round" stroke-width=".686" stroke="#2f2d68" fill="transparent" data-name="Path 5014"/></g></g></g></g><g data-name="Group 4039"><g data-name="Group 4038"><g data-name="Group 4035"><g data-name="Group 4033"><path d="M4474.03 3199.188c-.153-.555-3.702-13.83-4.926-31.373-1.14-16.302-.35-39.402 9.879-56.867 7.168-12.242 18.014-20.268 32.237-23.855l1.074 4.253c-13.037 3.288-22.97 10.628-29.523 21.81-18.563 31.686-4.65 84.357-4.509 84.886l-4.233 1.146Z" fill="#69b591" fill-rule="evenodd" data-name="Path 5015"/><path d="M4472.404 3156.018s-6.832-29.101-27.723-19.346c0 0 5.261 28.607 27.723 19.346Z" fill="#69b591" fill-rule="evenodd" data-name="Path 5016"/><path d="M4504.882 3137.197s-26.47-6.958-34.339 14.712c0 0 25.012 7.722 34.34-14.712Z" fill="#69b591" fill-rule="evenodd" data-name="Path 5017"/><path d="M4474.156 3126.343s10.61-26.014-9.454-37.372c0 0-11.116 24.446 9.454 37.372Z" fill="#69b591" fill-rule="evenodd" data-name="Path 5018"/><path d="M4476.737 3119.227s22.304 13.893 35.456-5.04c0 0-20.693-14.258-35.456 5.04Z" fill="#69b591" fill-rule="evenodd" data-name="Path 5019"/><path d="M4496.167 3095.496s22.304 13.893 35.456-5.04c0 0-20.696-14.258-35.456 5.04Z" fill="#69b591" fill-rule="evenodd" data-name="Path 5020"/></g><g data-name="Group 4034"><path d="m4504.75 3182.888-13.353-17.617H4453.5l-13.35 17.617a10.822 10.822 0 0 0-.747 11.955l9.356 16.184H4496.14l9.353-16.184a10.826 10.826 0 0 0-.744-11.955Z" fill="#2d2d2d" fill-rule="evenodd" data-name="Path 5021"/></g></g><g data-name="Group 4037"><path d="M4406.549 3211.737v141.638h130.211v-141.638H4406.55Zm8.91 66.366v-57.459h112.393v57.46H4415.46Zm0 66.364v-57.456h112.393v57.456H4415.46Z" fill="#a2a0e6" fill-rule="evenodd" data-name="Path 5022"/><g data-name="Group 4036"><path d="M4426.755 3229.343h9.67a.541.541 0 0 1 .541.541v47.573a.541.541 0 0 1-.541.542h-9.67a.541.541 0 0 1-.541-.542v-47.573a.541.541 0 0 1 .541-.541z" fill="#2d2d2d" fill-rule="evenodd" data-name="Rectangle 2195"/><path d="M4440.955 3229.343h9.669a.541.541 0 0 1 .541.541v47.573a.541.541 0 0 1-.541.542h-9.67a.541.541 0 0 1-.541-.542v-47.573a.541.541 0 0 1 .542-.541z" fill="#f7a742" fill-rule="evenodd" data-name="Rectangle 2196"/><path d="M4454.941 3229.343h9.67a.541.541 0 0 1 .541.541v47.573a.541.541 0 0 1-.541.542h-9.67a.541.541 0 0 1-.542-.542v-47.573a.541.541 0 0 1 .542-.541z" fill="#2d2d2d" fill-rule="evenodd" data-name="Rectangle 2197"/><path d="m4499.021 3272.868-6.682 3.742c-.727.408-1.654.166-2.074-.54l-23.55-39.583a1.449 1.449 0 0 1 .554-2.013l6.683-3.744a1.543 1.543 0 0 1 2.073.54l23.55 39.585a1.45 1.45 0 0 1-.554 2.013Z" fill="#f7a742" fill-rule="evenodd" data-name="Path 5023"/><path d="m4516.736 3272.868-6.682 3.742a1.545 1.545 0 0 1-2.076-.54l-23.548-39.583a1.449 1.449 0 0 1 .555-2.013l6.682-3.744a1.543 1.543 0 0 1 2.073.54l23.55 39.585a1.45 1.45 0 0 1-.554 2.013Z" fill="#f7a742" fill-rule="evenodd" data-name="Path 5024"/></g></g></g></g></g></svg>