<svg xmlns="http://www.w3.org/2000/svg" width="35.388" height="26.955" viewBox="12762.714 13003.976 35.388 26.955"><g data-name="Group 3613"><g data-name="Group 936"><path d="m12796.235 13008.247-2.26 22.684h-27.135l-1.818-22.242 15.386 8.612 15.827-9.054Z" fill="#f2f2f2" fill-rule="evenodd" data-name="Path 1009"/><path d="m12795.468 13003.976-15.06 14.148-15.06-14.148h30.12Z" fill="#f2f2f2" fill-rule="evenodd" data-name="Path 1010"/></g><path d="M12766.84 13010.507v20.424h-2.46c-.92 0-1.666-.747-1.666-1.666v-21.764l2.695.069 1.431 2.937Z" fill="#f14336" fill-rule="evenodd" data-name="Path 1011"/><path d="M12798.101 13007.5v21.765c0 .92-.746 1.666-1.672 1.666h-2.46v-20.424l1.368-3.214 2.764.208Z" fill="#d32e2a" fill-rule="evenodd" data-name="Path 1012"/><path d="M12798.101 13005.641v1.86l-4.126 3.006-13.567 9.89-13.568-9.89-4.126-3.006v-1.86c0-.919.746-1.665 1.666-1.665h.967l15.06 10.975 15.061-10.975h.968c.919 0 1.665.746 1.665 1.665Z" fill="#f14336" fill-rule="evenodd" data-name="Path 1013"/><path d="m12766.84 13010.507-4.126-.636v-2.37l4.126 3.006Z" fill="#d32e2a" fill-rule="evenodd" data-name="Path 1014"/></g></svg>