<svg xmlns="http://www.w3.org/2000/svg" width="415.3" height="228.984" viewBox="1289.655 1727.009 415.3 228.984"><g data-name="Group 4190"><g data-name="Group 4180"><path d="M1676.333 1954.737c3.522-6.804 12.385-28.223 14.173-53.383 3.356-47.16-20.725-84.161-55.481-102.669-14.699-7.851-29.591-10.093-45.858-8.122-15.81 1.908-28.937 7.166-38.209 6.503-18.3-1.308-26.142-36.202-66.464-56.063-29.58-14.565-75.306-17.944-107.187-9.273-33.035 8.993-56.388 31.714-43.91 75.683 3.017 10.636 7.73 21.115 12.94 30.765 29.873 55.31-48.127 39.173-56.037 93.443-1.205 8.258-.589 15 .762 23.116h385.27Z" fill="#e5f2f3" fill-rule="evenodd" data-name="Path 5223"/><path d="M1377.307 1731.73c-33.008 8.985-56.35 31.677-43.94 75.577a6.1 6.1 0 0 0 2.203-.642 32.77 32.77 0 0 0 11.157-9.595c.37-5.248-.655-11.869-.655-11.869.649 1.671 3.189 3.973 5.038 5.493 3.93-6.133 6.926-11.05 12.455-9.805 10.252 2.311 23.006-.839 26.599-11.319a21.79 21.79 0 0 0-6.409-6.679 21.661 21.661 0 0 1 7.953 2.623c4.54-8.615 15.611-11.078 15.611-11.078a19.692 19.692 0 0 0 1.48-.477 54.139 54.139 0 0 0-1.602-12.097 15.048 15.048 0 0 1 7.32 8.729c6.97-6.127 7.813-17.848 7.315-23.498-15.795-.472-31.343 1.052-44.525 4.637Z" fill="#c1e0e4" fill-rule="evenodd" data-name="Path 5224"/><path d="M1635.026 1798.684c-14.31-7.643-28.803-9.97-44.57-8.268v85.026l44.63-76.726Z" fill="#eff" fill-rule="evenodd" data-name="Path 5225"/><path d="M1476.648 1947.707h41.138l60.298-108.434-.797-46.68c-5.453 1.154-10.473 2.437-14.993 3.344l-85.646 151.77Z" fill="#e7f7f7" fill-rule="evenodd" data-name="Path 5226"/><path d="M1599.12 1937.646c.678 10.112 10.855 14.641 10.855 14.641h67.552c.366-.793.81-1.78 1.308-2.939 5.725-13.438 18.717-50.435 7.774-87.89a65.412 65.412 0 0 0-14.378 8.865 45.252 45.252 0 0 1 7.717 9.244c-5.312-3.487-9.637-4.486-12.659-4.604a41.005 41.005 0 0 0-9.152 15.266c-7.802 23.95-23.403 21.472-37.309 25.425-.757.215-1.499.442-2.224.68 4.296 3.3 8.826 8.683 8.826 8.683-8.652-3.937-14.958-4.371-18.73-4.04a24.813 24.813 0 0 0-6.074 5.48c4.946-.886 12.777.14 14.572.294-5.916-.443-14.27 2.959-17.197 4.442a15.831 15.831 0 0 0-.88 6.453Z" fill="#c7dfe2" fill-rule="evenodd" data-name="Path 5227"/><path d="M1678.835 1949.348h-90.53v-158.676c-2.004.262-3.965.568-5.879.912v157.764h-200.1v-218.857a116.503 116.503 0 0 0-5.88 1.477v222.769h299.887c.494-.927 1.43-2.88 2.502-5.389Z" fill="#c5dadd" fill-rule="evenodd" data-name="Path 5228"/><g data-name="Group 4177"><path d="M1689.898 1907.733c-.114.956-.236 1.903-.367 2.841-1.398-1.068-2.617-1.886-2.617-1.886a9.488 9.488 0 0 1 2.984-.955Z" fill="#599dad" fill-rule="evenodd" data-name="Path 5229"/><path d="M1671.367 1917.097s10.46 2.082 11.802 1.019c1.34-1.063-8.593-3.527-8.593-3.527 2.077-2.574 10.837-5.732 10.837-5.732s1.862 2.023 3.812 3.81a149.393 149.393 0 0 1-1.137 6.406 157.414 157.414 0 0 1-3.788 15.026c-3.467.269-7.76-1.502-7.76-1.502 2.84-1.528 5.496-6.66 4.889-7.555-.606-.895-6.263 5.013-7.386 5.7-1.123.687-4.5.491-7.172-4.068-2.67-4.559 4.496-9.577 4.496-9.577Z" fill="#599dad" fill-rule="evenodd" data-name="Path 5230"/></g><g data-name="Group 4179"><path d="M1636.271 1867.38c3.043.761 22.572.508 22.067 3.043-.505 2.536-13.699 6.596-21.052 4.313 0 0 8.113 20.036 18.768 19.024 10.655-1.013 13.95-7.61 20.543-8.119 6.594-.509 11.414 1.27 8.114 3.044-3.3 1.775-14.46.584-19.785 5.11-5.325 4.527-9.636 7.32.254 9.349 7.114 1.458 18.292 1.214 25.333-1.87.514-6.991.424-14.014-.269-20.99-.14-1.385-.308-2.777-.505-4.176a103.609 103.609 0 0 0-3.136-14.645 96.773 96.773 0 0 0-6.557-16.634c-5.615-2.088-11.77-3.921-15.371-3.573 0 0 12.427 21.052 8.368 20.544-4.058-.509-18.008-21.815-18.008-21.815s-20.543-3.803-23.84 8.371c-3.296 12.175 2.034 18.258 5.076 19.024Z" fill="#6bb7bf" fill-rule="evenodd" data-name="Path 5231"/><g data-name="Group 4178"><path d="M1640.645 1852.18c28.01 11.338 42.38 20.849 49.605 28.103-.14-1.386-.308-2.778-.504-4.177-16.8-13.262-47.543-23.416-49.1-23.926Z" fill="#599dad" fill-rule="evenodd" data-name="Path 5232"/></g></g><path d="M1616.17 1926.295c-.017 0-.046-.004-.08-.006l.08.006Z" fill="#cfe1e5" fill-rule="evenodd" data-name="Path 5233"/><path d="m1616.017 1926.28-.207-.017c.076.011.148.018.207.018Z" fill="#cfe1e5" fill-rule="evenodd" data-name="Path 5234"/><path d="m1438.6 1728.345-54.802 89.71v53.657l82.209-137.817a167.077 167.077 0 0 0-27.406-5.55Z" fill="#eff" fill-rule="evenodd" data-name="Path 5235"/></g><g data-name="Group 4181"><path d="M1505.326 1806.047c36.046 0 65.267 29.22 65.267 65.267v37.02h-81.208v-86.346c0-8.804 7.137-15.941 15.941-15.941Z" fill="#b2cbfd" fill-rule="evenodd" data-name="Rectangle 2219"/><path d="M1489.385 1908.335h-81.209v-37.02c0-36.047 29.221-65.268 65.267-65.268 8.805 0 15.942 7.138 15.942 15.942v86.346Z" fill="#b2cbfd" fill-rule="evenodd" data-name="Rectangle 2220"/><path d="M1394.82 1827.03c7.376 0 13.357 5.98 13.357 13.358v65.772c0 7.377-5.98 13.358-13.358 13.358-7.377 0-13.357-5.98-13.357-13.358v-65.772c0-7.377 5.98-13.358 13.357-13.358Z" fill="#4f7bba" fill-rule="evenodd" data-name="Path 5236"/><path d="M1583.927 1827.03c7.377 0 13.358 5.98 13.358 13.358v65.772c0 7.378-5.98 13.358-13.358 13.358-7.377 0-13.357-5.98-13.357-13.358v-65.772c0-7.377 5.98-13.358 13.357-13.358Z" fill="#4f7bba" fill-rule="evenodd" data-name="Path 5237"/><path d="M1408.177 1908.335h162.417v47.659h-162.417v-47.659z" fill="#466aa5" fill-rule="evenodd" data-name="Rectangle 2221"/><path d="M1415.084 1897.826h67.395a6.907 6.907 0 0 1 6.907 6.907v7.204a6.907 6.907 0 0 1-6.907 6.907h-67.395a6.907 6.907 0 0 1-6.907-6.907v-7.204a6.907 6.907 0 0 1 6.907-6.907z" fill="#7a97f3" fill-rule="evenodd" data-name="Rectangle 2222"/><path d="M1496.292 1897.826h67.395a6.907 6.907 0 0 1 6.907 6.907v7.204a6.907 6.907 0 0 1-6.907 6.907h-67.395a6.907 6.907 0 0 1-6.907-6.907v-7.204a6.907 6.907 0 0 1 6.907-6.907z" fill="#7a97f3" fill-rule="evenodd" data-name="Rectangle 2223"/><path d="M1364.945 1894.89c0-11.939 9.678-21.616 21.616-21.616 11.938 0 21.616 9.677 21.616 21.616v61.104h-26.563v-40.058a21.624 21.624 0 0 1-16.669-21.046Z" fill="#7a97f3" fill-rule="evenodd" data-name="Path 5238"/><path d="M1613.824 1894.89c0-11.938-9.677-21.616-21.615-21.616-11.938 0-21.616 9.678-21.616 21.616v61.104h26.563v-40.058a21.624 21.624 0 0 0 16.668-21.046Z" fill="#7a97f3" fill-rule="evenodd" data-name="Path 5239"/><path d="M1586.924 1895.748a4.344 4.344 0 1 1 0 .1z" fill="#4f7bba" fill-rule="evenodd" data-name="Ellipse 493"/><path d="M1381.453 1895.748a4.344 4.344 0 1 1 0 .1z" fill="#4f7bba" fill-rule="evenodd" data-name="Ellipse 494"/><path d="M1592.596 1896.293s2.793-4.52 6.74-4.432c0 0-4.299-1.243-8.421 3.502l.754 2.878c3.317-1.213 2.903 6.254 2.903 6.254s2.578-10.27-1.976-8.202Z" fill="#4f7bba" fill-rule="evenodd" data-name="Path 5240"/><path d="M1592.208 1884.737s-3.02 6.294-.148 10.949c2.872 4.654-1.881.704-1.881.704s-2.427-4.96 2.029-11.653Z" fill="#4f7bba" fill-rule="evenodd" data-name="Path 5241"/><path d="M1377.139 1899.779s.589-4.253 7.386-3.93c6.798.322 0 2.116 0 2.116a8.042 8.042 0 0 0-7.386 1.814Z" fill="#4f7bba" fill-rule="evenodd" data-name="Path 5242"/></g><g data-name="Group 4184"><path d="M1358.968 1865.996s6.491 4.827 7.757 4.535c1.266-.293-4.744-5.21-4.744-5.21 2.261-1.088 9.29-.406 9.29-.406s2.342 7.551 3.497 6.956c1.154-.596-2.415-6.58-2.415-6.58 2.52-.153 5.609 1.717 5.609 1.717 4.229 3.34-.278 8.6-.278 8.6a12.858 12.858 0 0 0 3.539 4.966 11.158 11.158 0 0 1 4.079 7.861l-.692.066s-1.098-4.695-3.092-6.916c-.078-.08-.19-.196-.328-.335a12.029 12.029 0 0 1-.707-.697c-.992-.953-2.364-2.168-3.025-2.286.024-.109.033-.22.028-.332-.008.107-.018.216-.028.332-.226 2.658-5.383 4.98-8.555 5.456-3.171.477-2.191-.826-1.098-2.76 1.093-1.934 4.552-2.798 5.34-3.689.79-.89-.842-.892-2.753-.019-1.911.874-2.173 3.2-5.239 4.67-3.066 1.468-7.679-3.62-7.679-3.62 2.443-.125 5.932-2.778 5.806-3.59-.126-.812-5.922 1.4-6.913 1.505-.992.104-3.246-1.126-3.595-5.118-.349-3.992 6.196-5.106 6.196-5.106Z" fill="#599dad" fill-rule="evenodd" data-name="Path 5243"/><g data-name="Group 4182"><path d="M1393.444 1868.998s-7.17-4.015-3.824-9.464c0 0 2.677-3.347 5.545-4.207 0 0-1.53 8.126 0 8.318 1.53.191 1.051-9.178 1.051-9.178s7.552-3.633 10.516-3.346c0 0-4.684 7.935-3.155 7.744 1.53-.191 6.788-8.222 6.788-8.222s7.744-1.434 8.987 3.155c1.242 4.589-.765 6.883-1.912 7.17-1.147.285-8.506.191-8.318 1.147.188.956 5.163 2.486 7.935 1.625 0 0-3.059 7.552-7.074 7.17-4.016-.382-5.258-2.868-7.744-3.06-2.486-.19-4.302.48-3.06 1.148 1.243.67 5.45.22 7.459 1.927 2.01 1.707 3.633 2.758-.096 3.523-3.728.765-10.42.287-11.758-2.581l-1.34-2.869Z" fill="#79c8cc" fill-rule="evenodd" data-name="Path 5244"/><path d="M1391.532 1875.973a15.256 15.256 0 0 0 1.913-6.979c2.294-7.262 22.37-13.766 22.37-13.766-25.525 10.324-21.032 16.635-21.032 16.635-.688.4-1.719 2.314-2.435 3.782-.102.25-.261.596-.503 1.065-.097.212-.175.386-.228.507-1.315 3.289-.619 8.967-.619 8.967l-.796.214a13.24 13.24 0 0 1 1.33-10.425Z" fill="#6bb7bf" fill-rule="evenodd" data-name="Path 5245"/></g><g data-name="Group 4183"><path d="M1382.038 1863.456s9.451-5.293 5.038-12.475c0 0-3.529-4.411-7.31-5.545 0 0 2.017 10.711 0 10.963-2.016.252-1.386-12.098-1.386-12.098s-9.956-4.788-13.862-4.41c0 0 6.175 10.46 4.158 10.206-2.016-.253-8.947-10.837-8.947-10.837s-10.206-1.89-11.846 4.158c-1.64 6.049 1.009 9.073 2.52 9.451 1.512.379 11.217.253 10.965 1.513-.252 1.26-6.805 3.277-10.46 2.142 0 0 4.032 9.956 9.325 9.452 5.293-.505 6.931-3.781 10.207-4.033 3.275-.252 5.67.63 4.032 1.512s-7.183.29-9.83 2.539c-2.646 2.25-4.789 3.636.126 4.645 4.916 1.01 13.737.378 15.501-3.402l1.769-3.78Z" fill="#6bb7bf" fill-rule="evenodd" data-name="Path 5246"/><path d="M1352.549 1845.308s26.464 8.57 29.488 18.146c.09 3.225.954 6.38 2.52 9.2 0 0 4.082 6.198 1.755 13.74l-1.047-.282s.916-7.485-.815-11.82c-.07-.16-.173-.389-.301-.669a18.84 18.84 0 0 1-.663-1.403c-.944-1.935-2.303-4.457-3.21-4.986 0 .004 5.92-8.311-27.727-21.926Z" fill="#599dad" fill-rule="evenodd" data-name="Path 5247"/></g><path d="M1382.358 1902.758c-10.226 0-18.516-8.29-18.516-18.516h37.031c0 10.226-8.29 18.516-18.515 18.516Z" fill="#f1a34f" fill-rule="evenodd" data-name="Path 5248"/><path d="M1377.8 1902.614a18.524 18.524 0 0 0 20.813-18.372h-4.6c0 9.336-6.95 17.212-16.213 18.372Z" fill="#ffb973" fill-rule="evenodd" data-name="Path 5249"/><path d="M1365.87 1901.415h32.971a2.284 2.284 0 0 1 2.284 2.284h-37.538a2.284 2.284 0 0 1 2.283-2.284Z" fill="#f1a34f" fill-rule="evenodd" data-name="Path 5250"/><path d="M1363.42 1884.243h38.058v.568h-38.057v-.568z" fill="#d86713" fill-rule="evenodd" data-name="Rectangle 2224"/></g><g data-name="Group 4187"><g data-name="Group 4185"><path d="M1427.424 1955.19c-.603.001-1.15-.35-1.402-.898l-21.164-46.031a1.54 1.54 0 1 1 2.8-1.287l21.161 46.033a1.54 1.54 0 0 1-1.398 2.184Z" fill="#233862" fill-rule="evenodd" data-name="Path 5251"/><path d="M1476.73 1955.19a1.54 1.54 0 0 1-1.4-.898l-21.162-46.032a1.54 1.54 0 1 1 2.8-1.287l21.161 46.033a1.541 1.541 0 0 1-1.399 2.185Z" fill="#233862" fill-rule="evenodd" data-name="Path 5252"/><path d="M1473.849 1949.55h-49.023a1.54 1.54 0 1 1 0-3.083h49.023a1.54 1.54 0 1 1 0 3.082Z" fill="#233862" fill-rule="evenodd" data-name="Path 5253"/></g><g data-name="Group 4186"><path d="M1356.95 1955.19a1.54 1.54 0 0 1-1.4-2.184l21.162-46.033a1.541 1.541 0 0 1 2.8 1.287l-21.161 46.034c-.252.547-.8.897-1.402.897Z" fill="#2b478b" fill-rule="evenodd" data-name="Path 5254"/><path d="M1307.642 1955.19a1.54 1.54 0 0 1-1.4-2.184l21.162-46.033a1.541 1.541 0 1 1 2.8 1.287l-21.16 46.034c-.253.547-.8.897-1.402.897Z" fill="#2b478b" fill-rule="evenodd" data-name="Path 5255"/><path d="M1359.545 1949.55h-49.026a1.54 1.54 0 0 1 0-3.083h49.026a1.54 1.54 0 1 1 0 3.082Z" fill="#2b478b" fill-rule="evenodd" data-name="Path 5256"/></g><path d="M1455.908 1908.23h-51.978a2.26 2.26 0 0 1 0-4.52h51.978a2.26 2.26 0 1 1 0 4.52Z" fill="#aa3e39" fill-rule="evenodd" data-name="Path 5257"/><path d="M1418.211 1908.23h-98.859a2.26 2.26 0 0 1 0-4.52h98.86a2.26 2.26 0 0 1 0 4.52Z" fill="#b84c42" fill-rule="evenodd" data-name="Path 5258"/></g><path d="M1570.403 1809.942s9.93 2.776 9.585 9.486c-.345 6.711-15.546 31.608-17.476 33.765-3.513 3.925-22.289 16.205-22.289 16.205l-2.654-2.322s14.836-17.344 16.925-18.843c3.282-2.357 12.088-36.618 15.91-38.291Z" fill="#ffb27d" fill-rule="evenodd" data-name="Path 5259"/><path d="M1537.571 1867.071s-3.028.935-4.031.879a4.005 4.005 0 0 0-2.644 1.42c-.051.289 2.266-.294 2.31.13.045.425-1.008 1.369-2.022 1.37-1.014.002.738 2.022 1.561 2.846.212.212.936 1.068 3.468.142 2.532-.927 4.26-4.894 4.26-4.894l-2.902-1.893Z" fill="#ffb27d" fill-rule="evenodd" data-name="Path 5260"/><path d="M1564.03 1810.485c3.824-1.193 7.786-7.208 7.67-8.418a9.054 9.054 0 0 0-.294-1.112l-15.62-9.866s3.534-10.2 9.137-10.748c.492-2.02 2.299-6.28 8.742-5.217 0 0-2.65.27-4.187 1.43 0 0 5.858-2.255 10.875 3.52 5.018 5.775-.583 17.262.806 19.847 1.39 2.585 8.197 4.177 6.134 11.456-2.064 7.279-24.594 13.11-24.256 19.469 0 0-5.833-12.584-.07-17.53-1 .815-2.91 2.618-3.507 4.917-.01-.001.246-6.4 4.57-7.748Z" fill="#2c3a64" fill-rule="evenodd" data-name="Path 5261"/><path d="m1565.58 1949.728 3.729-.548s12.548-9.972 14.417-28.579c.196-1.911.225-3.836.09-5.753-.029-.22.017-.443.13-.635l.004-.004c.401-.616 1.402-2.16 2.754-4.352 1.335-2.16 3.618-6.247 6.129-10.832 4.525-8.256 9.791-18.13 11.599-21.275 5.758-10.024 2.982-16.764 2.982-16.764s-16.06-1.588-20.461-5.438l-1.585 2.443s-3.48 15.405-3.316 15.477l-.523 1.6c-2.748 8.475-5.905 19.07-7.628 27.698-.968 4.854-1.48 9.084-1.205 11.966a21.047 21.047 0 0 1-.284 4.384c-1.553 11.056-6.832 30.612-6.832 30.612Z" fill="#bc3f3f" fill-rule="evenodd" data-name="Path 5262"/><path d="M1557.747 1954.455h15.571a8.55 8.55 0 0 0-.44-4.172c-.78-1.728-1.89-1.784-.142-4.491-.99 1.018-4.17 1.44-6.421 1.137-.276.447-1.778 3.447-2.699 4.109-1.015.728-5.555.467-5.87 3.417Z" fill="#233862" fill-rule="evenodd" data-name="Path 5263"/><path d="M1581.53 1875.07c1.359 7.501 4.571 19.985 11.302 23.958 4.525-8.256 9.792-18.13 11.599-21.276 5.757-10.024 2.982-16.764 2.982-16.764s-16.06-1.588-20.461-5.437l-1.585 2.443s-3.48 15.405-3.316 15.476c-.169.522-.343 1.055-.522 1.6Z" fill="#a53d38" fill-rule="evenodd" data-name="Path 5264"/><path d="m1592.451 1862.144-.052-2.912c5.802.732 20.005-6.935 20.005-6.935s6.07 4.037 6.9 15.566c.406 5.627 2.972 29.426 3.256 36.533.104 2.575.138 4.413.15 5.148v.007c.014.221.1.432.246.599a33.307 33.307 0 0 1 3.144 4.819c8.853 16.472 4.224 38.853 4.224 38.853l-2.057-.523s-7.485-23.202-12.377-33.237a21.014 21.014 0 0 0-2.216-3.795c-1.839-2.234-3.78-6.028-5.692-10.594-3.614-8.636-7.122-20.026-9.625-28.846-.181.038-5.906-14.683-5.906-14.683Z" fill="#bc3f3f" fill-rule="evenodd" data-name="Path 5265"/><path d="M1571.169 1824.102c9.73.055 8.488-15.906 7.9-15.804-1.218-.561-4.598-2.42-6.079-7.397l-.91.764-6.841 3.636s.855 2.242 1.512 4.396c.512 1.685.901 3.319.667 3.795-.541.249 1.16 10.597 3.75 10.61Z" fill="#ffb27d" fill-rule="evenodd" data-name="Path 5266"/><path d="M1565.241 1805.302s.857 2.24 1.513 4.396c4.037-1.344 5.069-5.707 5.33-8.032l-6.843 3.636Z" fill="#ed985f" fill-rule="evenodd" data-name="Path 5267"/><path d="M1564.554 1808.657s10.709-3.842 8.213-10.474c-2.495-6.632-2.794-11.595-9.736-9.421-6.943 2.173-7.312 5.2-7.017 7.617.294 2.416 5.688 13.108 8.54 12.278Z" fill="#ffb27d" fill-rule="evenodd" data-name="Path 5268"/><path d="M1554.939 1792.574c.892-2.617 2.3-2.648 3.223-2.31 4.61-5.395 12.381-5.199 12.381-5.199a211.163 211.163 0 0 1 4.729 9.035s-1.487 1.93-6.393 2.47a8.123 8.123 0 0 1-4.567-1.133 26.544 26.544 0 0 0 6.244 3.606c-6.273-.453-11.223-7.072-11.734-7.777-.43.83-1.232 2.58-1.153 3.97.106 1.888 1.177 5.453.122 5.717 0 0-4.194-4.458-2.852-8.38Z" fill="#2c3a64" fill-rule="evenodd" data-name="Path 5269"/><path d="M1617.939 1954.454h15.571a8.55 8.55 0 0 0-.44-4.173c-.78-1.728-2.001-2.513-1.708-4.603a5.607 5.607 0 0 1-4.851 1.857c-.277.446-1.781 2.84-2.703 3.501-1.021.728-5.555.467-5.87 3.418Z" fill="#233862" fill-rule="evenodd" data-name="Path 5270"/><path d="M1579.046 1808.102a25.552 25.552 0 0 0-12.235 3.967l-2.108 14.537c-.687 5.225-.74 9.418 1.404 11.389a15.875 15.875 0 0 0 6.76 3.606c4.68 1.15 5.518.528 7.2 2.216.614.616.051-.298.006.236-.262 3.03 4.096 17.37 4.096 17.37 22.834 3.748 30.366-8.19 30.366-8.19-8.337-26.705-35.489-45.13-35.489-45.13Z" fill="#2b478b" fill-rule="evenodd" data-name="Path 5271"/><path d="M1569.409 1840.285c3.581 2.034 7.72 2.139 9.762 2.039a43.173 43.173 0 0 0 4.364-23.922s-11.936 2.19-10.39 9.197c1.36 6.164-2.61 10.97-3.736 12.686Z" fill="#233862" fill-rule="evenodd" data-name="Path 5272"/><path d="m1514.882 1952.29-2.519-2.296 73.493-80.96a1.7 1.7 0 0 1 2.41-.113 1.7 1.7 0 0 1 .113 2.404l-73.497 80.965Z" fill="#233862" fill-rule="evenodd" data-name="Path 5273"/><path d="M1570.847 1815.04s9.832-3.106 13.212 2.7c3.379 5.806 4.266 34.965 3.83 37.826-.793 5.209-9.8 25.755-9.8 25.755l-3.493-.493s2.939-22.633 3.868-25.032c1.458-3.764-9.9-37.266-7.617-40.756Z" fill="#ffb27d" fill-rule="evenodd" data-name="Path 5274"/><path d="M1585.366 1821.544c.035.15-7.492 6.562-14.292 6.117 0 0-6.713-12.378.256-14.533 6.968-2.155 11.818-1.745 13.352 1.374 1.535 3.119.684 7.042.684 7.042Z" fill="#2b478b" fill-rule="evenodd" data-name="Path 5275"/><path d="M1574.594 1880.83s-2.025 2.44-2.897 2.94a4.007 4.007 0 0 0-1.439 2.634c.116.27 1.738-1.485 2.007-1.153.27.332.254 4.13-.594 4.685-.848.556-2.13 2.028-1.962 2.272.166.245 5.603-2.101 7.213-4.26 1.61-2.158 1.128-7.118 1.128-7.118h-3.456Z" fill="#ffb27d" fill-rule="evenodd" data-name="Path 5276"/><path d="M1541.914 1879.877a.897.897 0 0 1-.62-.247l-17.153-16.244a.903.903 0 0 1 1.243-1.308l17.151 16.242a.902.902 0 0 1-.62 1.557Z" fill="#233862" fill-rule="evenodd" data-name="Path 5277"/><path d="M1532.662 1873.64s3.131.02 4.188-.866c1.056-.888-3.103-3.543-4.559-2.975-1.455.569-1.854.861-1.19 1.925.448.694.972 1.336 1.561 1.915Z" fill="#ffb27d" fill-rule="evenodd" data-name="Path 5278"/><path d="M1532.106 1868.387a4.311 4.311 0 0 0-1.59 1.332c-.397.739 3.202 0 3.202 0l-1.612-1.332Z" fill="#ffb27d" fill-rule="evenodd" data-name="Path 5279"/><path d="M1535.063 1873.437s1.791-.955 1.265-2.083a3.674 3.674 0 0 0-1.656-1.636 5.603 5.603 0 0 1 1.939 1.13c.899.907 1.167 2.222-1.548 2.589Z" fill="#ed985f" fill-rule="evenodd" data-name="Path 5280"/><g data-name="Group 4188"><path d="M1506.66 1848.67z" fill="#f1a34f" fill-rule="evenodd" data-name="Rectangle 2225"/><path d="M1527.26 1864.566a2.982 2.982 0 0 1-4.217.014l-12.938-12.85a2.982 2.982 0 0 1 4.202-4.232l12.936 12.847a2.98 2.98 0 0 1 .016 4.22Z" fill="#f1a34f" fill-rule="evenodd" data-name="Path 5281"/><path d="M1509.52 1847.936s-.443.446-.45.604c-.007.159.219.007.219.007l-.327.634.212.21-.344.678s.16.369.249.384c.09.015.276.281.25.353-.127.34-.327.694-.171.7.156.007.458.247.626.262.168.016.196.21.19.354 0 .066-.01.132-.028.196a.999.999 0 0 1 .413.114 2 2 0 0 1 .143.13s.288.346.333.406c.045.06.065.28.332.18.152-.056.298-.127.436-.212l.277-.174.03-.469c.307-.142.187-.082.187-.082l.12-.06c.12-.07.246-.13.376-.182.281-.167.506-.414.645-.71.075-.212.096-.49.367-.626.27-.136.933-.545.933-.545l.097-.024s.223-.693.254-.724c.03-.03-.008-.065.344-.422.353-.357.247-.385.393-.393.146-.008.822.367.196-.241-.626-.608-.506-.609-.763-.668-.256-.058-.498-.224-.528-.374-.03-.15-.053-.233-.053-.233s.044-.302-.393-.47c-.28-.104-.58-.149-.878-.13-.045 0-.353.189-.534-.051-.182-.24-1.003-.276-1.026-.253-.022.023-.226-.09-.3.152l-.045.045s.542-.167-.03.196c-.57.364-.224.407-.533.371-.308-.036-.392-.24-.49-.065a6.311 6.311 0 0 0-.547.928c.027.067-.182.204-.182.204Z" fill="#f1a34f" fill-rule="evenodd" data-name="Path 5282"/><path d="M1528.761 1865.162s.443-.446.45-.604c.006-.158-.218-.006-.218-.006l.327-.634-.212-.21.344-.68s-.16-.368-.25-.382c-.09-.015-.276-.282-.25-.354.128-.34.328-.693.171-.7-.156-.008-.458-.248-.625-.262-.168-.015-.196-.21-.19-.353 0-.066.009-.132.027-.196a.999.999 0 0 1-.412-.114c-.106-.09-.144-.13-.144-.13s-.287-.346-.332-.406c-.046-.06-.066-.278-.332-.18a2.398 2.398 0 0 0-.437.212l-.278.174-.03.469c-.307.142-.186.082-.186.082l-.12.061c-.122.07-.247.13-.377.182a1.624 1.624 0 0 0-.645.71c-.074.212-.096.49-.366.627-.27.136-.933.545-.933.545l-.098.023s-.224.694-.254.724c-.03.03.008.065-.344.422-.352.358-.248.385-.393.393-.145.008-.822-.366-.196.242.625.608.506.608.762.667.256.06.498.225.529.375.03.15.053.234.053.234s-.045.301.39.469c.28.105.579.15.878.13.045 0 .353-.188.534.052.181.24 1.003.275 1.025.252.023-.023.227.09.301-.151l.045-.046s-.541.168.03-.196c.571-.364.224-.408.533-.37.309.036.393.238.49.065.208-.294.391-.604.546-.929-.022-.07.187-.207.187-.207Z" fill="#f1a34f" fill-rule="evenodd" data-name="Path 5283"/><path d="M1521.667 1857.97s.442-.445.45-.603c.007-.158-.22-.007-.22-.007l.328-.633-.212-.21.345-.679s-.16-.37-.25-.384c-.09-.014.626.474.654.402.127-.34-.574-1.448-.732-1.455-.158-.008-.458-.248-.626-.262-.167-.015-.196-.21-.19-.354 0-.067.01-.133.027-.196a.996.996 0 0 1-.411-.115c-.106-.09-.144-.128-.144-.128s-.287-.345-.333-.405c-.046-.06-.065-.279-.332-.18a2.415 2.415 0 0 0-.435.212l-.279.174-.029.468c-.307.144-.187.082-.187.082l-.12.062c-.12.07-.246.13-.376.181a1.628 1.628 0 0 0-.644.71c-.076.212-.097.49-.367.626-.271.137-.934.545-.934.545l-.096.024s-.224.694-.254.724c-.03.03.008.065-.345.423-.352.358-.247.385-.392.392-.146.008-.823-.366-.197.242.626.608.507.608.763.667.256.059.497.225.528.375.03.15.054.234.054.234s-.045.301.392.47c.438.168.701.24.681.28-.106.225.524.642.706.882.183.24 1.028-.708 1.05-.73.023-.023.226.088.301-.152l.046-.046s-.542.167.029-.197c.571-.363.224-.406.533-.37.309.037.393.24.49.066.208-.294.391-.604.547-.928-.035-.069.18-.206.18-.206Z" fill="#f1a34f" fill-rule="evenodd" data-name="Path 5284"/><path d="M1511.413 1853.031s-.566.608.13.874c.698.267.655-.096.829.497.084.244.142.496.172.753 0 0-.38.423.383.38.763-.042.458-.322.785.196.327.52.319.748.634.955.315.207.222.262.691.593.269.214.608.319.95.292 0 0 .262.262.402-.04.067-.42.086-.844.056-1.266.02-.13.052-.258.099-.382l.762-.284c.108 0 .216-.014.321-.04l.12-.041s.1-.182.14-.262c.04-.08-.076-.124-.076-.124s-.148-.819-.027-.9c.12-.081-.322.041.119-.08.44-.122.821-.425.963-.406.141.02.16-.04.221.02l.06.06.32-.524c-.082-.32-.845-.64-.505-.822.34-.181.333.27.473.328.14.058 1.477.286.35-.434-1.126-.719-1.047-1.483-1.188-1.462-.142.022-.585-.298-.706-.419-.12-.12-.203-.762-.706-.7-.502.062-.551.051-.433-.393.119-.444.11-.614-.232-.552-.227.037-.46.037-.687 0 0 0 .455-.479-.213-.336-.667.142-1.37.286-1.429.589-.06.303-.179.382-.479.965-.3.584-.64.524-.96.847-.321.323.079-.322-.459.463-.537.785-.58.384-.539.785a.916.916 0 0 1-.239.684l-.102.186Z" fill="#6bb7bf" fill-rule="evenodd" data-name="Path 5285"/><path d="M1526.975 1860.182s.566-.608-.13-.874c-.698-.266-.655.096-.83-.497a3.618 3.618 0 0 1-.172-.753s.38-.422-.383-.38c-.764.043-.458.324-.785-.196-.328-.52-.32-.747-.634-.954-.315-.207-.222-.262-.691-.593a1.36 1.36 0 0 0-.952-.292s-.261-.262-.401.041a5.513 5.513 0 0 0-.056 1.265c-.019.13-.052.26-.099.382l-.762.284c-.108 0-.216.014-.321.041l-.12.041s-.1.18-.14.262c-.04.081.077.124.077.124s.147.82.027.9c-.12.08.321-.042-.12.08-.44.123-.821.425-.962.405-.14-.02-.161.04-.221-.019l-.06-.06-.32.523c.081.322.845.64.504.822-.34.183-.333-.269-.474-.327-.14-.058-1.476-.286-.35.433 1.128.72 1.048 1.484 1.19 1.463.142-.02.585.298.706.418.12.12.203.763.705.7.502-.061.552-.051.433.394-.12.444-.11.614.231.552.228-.037.46-.037.688 0 0 0-.454.478.213.335.667-.142 1.37-.285 1.428-.589.06-.303.18-.381.48-.965.298-.584.64-.524.96-.847.32-.323-.079.322.458-.463s.582-.383.54-.785a.915.915 0 0 1 .239-.683l.104-.188Z" fill="#6bb7bf" fill-rule="evenodd" data-name="Path 5286"/></g><g data-name="Group 4189"><path d="M1506.39 1949.235a5.28 5.28 0 0 0-1.6.24l-9.7 3.04c-.56.175-.94.693-.94 1.279v.66h31.665v-5.22l-19.426.001Z" fill="#bc3f3f" fill-rule="evenodd" data-name="Path 5287"/><path d="M1532.03 1954.45h-18.738v-.66c0-.585.38-1.103.94-1.278l9.7-3.04a5.29 5.29 0 0 1 4.764.822l2.658 2c.29.219.479.545.524.905l.152 1.25Z" fill="#a53d38" fill-rule="evenodd" data-name="Path 5288"/></g><path d="M1697.036 1950.23a4.488 4.488 0 1 1-8.975 0 4.488 4.488 0 0 1 8.975 0Z" fill="#466aa5" fill-rule="evenodd" data-name="Path 5289"/><path d="M1646.03 1953.35h54.978l1.516-1.516a8.291 8.291 0 0 0-.744-12.383 71.133 71.133 0 0 0-44.05-15.294c-13.64 0-17.938 7.88-17.959 15.334-.021 7.611 6.26 13.86 6.26 13.86Z" fill="#f1a34f" fill-rule="evenodd" data-name="Path 5290"/><path d="M1701.784 1939.457a72.393 72.393 0 0 0-16.777-9.85 72.357 72.357 0 0 1 11.325 7.3 8.291 8.291 0 0 1 .743 12.382l-1.515 1.516h-51.637c.64.9 1.346 1.753 2.11 2.552h54.98l1.515-1.516a8.292 8.292 0 0 0-.745-12.384Z" fill="#d86713" fill-rule="evenodd" data-name="Path 5291"/><path d="M1671.097 1952.162c5.292-5.335 5.27-13.946-.051-19.253-5.32-5.306-13.932-5.306-19.253 0-5.32 5.307-5.343 13.918-.05 19.253h19.354Z" fill="#d86713" fill-rule="evenodd" data-name="Path 5292"/><path d="M1646.03 1940.984a13.63 13.63 0 1 1 0 .1z" fill="#466aa5" fill-rule="evenodd" data-name="Ellipse 495"/><path d="M1648.586 1940.985a11.075 11.075 0 1 1 0 .1z" fill="#7a97f3" fill-rule="evenodd" data-name="Ellipse 496"/><path d="M1639.781 1939.32c-4.06-.242-13.841-1.449-17.458-7.443-2.378-3.943-1.706-9.394 2-16.204a41.381 41.381 0 0 0 5.256-21.256 39.05 39.05 0 0 0-5.001-17.976c-4.65-8.219-11.952-13.712-18.603-13.995-10.402-.445-16.063 3.61-18.515 6.069.75.154 1.303.79 1.351 1.554a16.234 16.234 0 0 1 2.938-2.339c2.617-1.642 7.192-3.532 14.137-3.24 5.962.253 12.6 5.34 16.91 12.958 3.065 5.418 9.175 19.89-.272 37.247-4.08 7.496-4.736 13.633-1.954 18.243 4.272 7.071 15.284 8.258 19.44 8.45a16.44 16.44 0 0 1-.229-2.068Z" fill="#d86713" fill-rule="evenodd" data-name="Path 5293"/><path d="m1639.925 1938.843.722.054a1.611 1.611 0 1 1-.242 3.214l-.722-.055a1.611 1.611 0 0 1 .242-3.214Z" fill="#f1a34f" fill-rule="evenodd" data-name="Rectangle 2227"/><path d="m1640.15 1938.861-1.35-.101a.483.483 0 0 0-.518.445l-.04.555a.482.482 0 0 1 .494-.335l1.351.101a.487.487 0 0 0-.033.162l-.053 2.394.057.004a.533.533 0 0 1-.007-.082l.065-2.981a.497.497 0 0 1 .035-.162Z" fill="#ffb973" fill-rule="evenodd" data-name="Path 5294"/><path d="M1640.705 1941.796c.024-8.325 4.825-17.128 20.058-17.128 3.033 0 6.047.17 9.044.51a71.204 71.204 0 0 0-12.076-1.021c-13.64 0-17.938 7.88-17.958 15.334a16.85 16.85 0 0 0 1.553 6.835 17.078 17.078 0 0 1-.621-4.53Z" fill="#ffb973" fill-rule="evenodd" data-name="Path 5295"/><path d="m1489.387 1815.965.85 88.531-1.328-1.33.478-87.201Z" fill="#7a97f3" fill-rule="evenodd" data-name="Path 5296"/></g></svg>