<svg xmlns="http://www.w3.org/2000/svg" width="37.021" height="62.552" viewBox="12746.149 11147.879 37.021 62.552"><g data-name="Group 150"><path d="M12778.89 11147.879h-28.46a4.246 4.246 0 0 0-4.28 4.281v50.999a4.246 4.246 0 0 0 4.28 4.281h.379v1.763c0 1.637 2.518 1.637 2.518 0v-1.763h22.918v1.763c0 1.637 2.518 1.637 2.518 0v-1.763h.126a4.246 4.246 0 0 0 4.282-4.281v-50.999c0-2.392-2.015-4.281-4.282-4.281Zm-28.46 2.518h28.46c1.007 0 1.762.756 1.762 1.763v17.755h-31.984v-17.755c0-1.007.755-1.763 1.763-1.763Zm28.46 54.525h-28.46c-1.007 0-1.762-.756-1.762-1.763v-30.725h31.984v30.725c0 1.007-.881 1.763-1.763 1.763Zm0 0" fill="#7799dc" fill-rule="evenodd" data-name="Path 49"/><path d="M12751.942 11177.093v6.8c0 1.637 2.518 1.637 2.518 0v-6.8c0-1.637-2.518-1.637-2.518 0Zm0 0" fill="#7799dc" fill-rule="evenodd" data-name="Path 50"/><path d="M12754.46 11166.012v-6.926c0-1.637-2.518-1.637-2.518 0v6.8c0 1.637 2.518 1.637 2.518.126Zm0 0" fill="#7799dc" fill-rule="evenodd" data-name="Path 51"/></g></svg>