<svg xmlns="http://www.w3.org/2000/svg" width="406.263" height="232.665" viewBox="3229.187 774.829 406.263 232.665"><g data-name="Mask Group 66" transform="translate(1857 -961.579)" clip-path="url(&quot;#a&quot;)"><g data-name="Group 4201"><path d="M1386.479 1968.382c-3.698-7.709-23.106-51.51-9.538-95.568a98.807 98.807 0 0 1 11.505-24.698c2.926-4.518 6.198-8.801 9.788-12.812 28.46-31.884 54.705-36.21 76.237-34.041 17.182 1.726 31.362 7.59 41.272 6.882 22.33-1.591 29.49-51.8 95.547-66.943 13.18-3.02 27.973-4.777 42.75-4.794 41.301-.053 82.47 13.454 87.892 50.749.782 5.382.82 11.254.007 17.654a94.394 94.394 0 0 1-3.034 14.365c-2.71 9.39-7.015 19.72-13.154 31.06-19.6 36.204 6.048 42.512 29.223 56.87.953.59 1.9 1.195 2.843 1.815 14.484 9.544 28.112 48.348 15.898 59.472l-387.236-.011Z" fill="#fcecdb" fill-rule="evenodd" data-name="Path 5298"/><path d="m1680.988 1796.297-4.808-3.893-97.806 131.62 52.061-136.336-24.917 14.467 24.528-64.236a188.015 188.015 0 0 0-18.755 3.284c-3.387.776-6.621 1.641-9.703 2.595l-74.183 139.487 23.223-36.932-44.962 101.775-3.696-41.922 72.389-150.133c-33.188 20.675-41.388 50.844-58.615 52.072-9.91.709-24.09-5.156-41.273-6.882-21.532-2.169-47.778 2.157-76.237 34.041a103.96 103.96 0 0 0-10.399 13.766 98.807 98.807 0 0 0-10.894 23.744c-13.568 44.058 5.84 87.86 9.538 95.568l230.645.006 90.937-181.312-112.194 162.28 85.121-153.06Z" fill="#c1dfd4" fill-rule="evenodd" data-name="Path 5299"/><g data-name="Group 4192"><path d="M1499.152 1839.206s1.944-3.358.992-5.344c-.952-1.986-1.819-2.51-2.337-1.557-.519.952-.585 6.052-.585 6.052l1.93.85Z" fill="#ffb27d" fill-rule="evenodd" data-name="Path 5300"/><g data-name="Group 4191"><path d="m1490.147 1843.911.183.169a.48.48 0 0 0 .666.033l14.662-15.288-1.457-1.788-14.147 16.182a.504.504 0 0 0 .093.692Z" fill="#ed7d2b" fill-rule="evenodd" data-name="Path 5301"/><path d="m1501.97 1825.089 6.216 6.483 1.175-.916-7.032-7.334-.36 1.767Z" fill="#e5bd9e" fill-rule="evenodd" data-name="Path 5302"/></g><path d="M1459.544 1900.456c.203 1.523-25.576 54.188-25.767 63.904l-3.744.196s0-26.163 7.303-36.497a6.51 6.51 0 0 0 1.192-3.536c.277-8.136 1.927-36.798 11.405-35.756 11.04 1.213 9.611 11.69 9.611 11.69Z" fill="#ffb27d" fill-rule="evenodd" data-name="Path 5303"/><path d="M1432.862 1939.113c1.37 4.979 12.402 7.28 12.402 7.28l.823-2.425.179-.525 4.85-14.309 1.888-5.565 4.984-14.693s-2.795-17.044-9.586-19.835c-6.792-2.791-12.34 34.431-12.214 35.954.126 1.523-3.326 14.118-3.326 14.118Z" fill="#2b478b" fill-rule="evenodd" data-name="Path 5304"/><path d="M1440.392 1969.072h-12.03s-.29-1.833.34-3.225c.601-1.335 1.355-1.805 1.375-3.644.765.788 1.954 1.756 3.694 1.522.213.346 1.375 2.195 2.087 2.706.786.565 4.292.363 4.534 2.641Z" fill="#233862" fill-rule="evenodd" data-name="Path 5305"/><path d="m1446.087 1943.967.179-.525 4.85-14.308-.859-6.254c-.087-7.95-4.202-19.526-6.424-18.765.001.001 3.528 13.528 2.254 39.852Z" fill="#233862" fill-rule="evenodd" data-name="Path 5306"/><path d="M1452.494 1856.756s-13.39 13.997-15.595 17.14c-2.205 3.143-6.773 16.989-6.773 16.989l2.52.513s8.034-13.91 8.664-14.765c.63-.855 11.184-7.943 11.184-7.943v-11.934Z" fill="#ffb27d" fill-rule="evenodd" data-name="Path 5307"/><path d="M1435.678 1876.147s1.5 1.9 5.137 1.27c0 0 .464-.797.687-.893.133-.057 6.605-4.603 11.791-8.255 3.494-2.458 6.405-4.51 6.405-4.51l-7.204-7.003s-15.3 15.873-15.847 17.198c-.547 1.325-.97 2.193-.97 2.193Z" fill="#d8716b" fill-rule="evenodd" data-name="Path 5308"/><path d="M1441.502 1876.524c.133-.057 6.605-4.603 11.791-8.255 0-.004 0-.008-.002-.011-.508-1.84-2.284-3.11-2.284-3.11s-8.6 7.902-9.505 11.376Z" fill="#b84c42" fill-rule="evenodd" data-name="Path 5309"/><path d="M1456.351 1859.964h6.807a23.724 23.724 0 0 0 1.468-4.777c.189-.952.32-1.914.396-2.88.04-.551.04-.867.04-.867l-5.84-1.927-.663 2.414-2.208 8.037Z" fill="#ffb27d" fill-rule="evenodd" data-name="Path 5310"/><path d="M1458.56 1851.927s2.34 3.049 6.066 3.26a24.47 24.47 0 0 0 .396-2.88c-1.864-.578-4.338-.87-6.463-.38Z" fill="#ed985f" fill-rule="evenodd" data-name="Path 5311"/><path d="M1467.306 1852.313s-6.969 3.452-9.052-.92c-2.083-4.374-4.385-6.873-.024-9.262 4.361-2.39 6.027-1.135 7.077.155 1.05 1.29 3.758 9.016 1.999 10.027Z" fill="#ffb27d" fill-rule="evenodd" data-name="Path 5312"/><path d="M1462.81 1888.891s.998 32.739.994 42.52c-.004 9.783-.43 32.314-.43 32.314l-1.865.72-1.885-2.155s-6.794-25.76-6.175-29.34c1.535-8.885-9.806-17.263 2.01-42.998 3.425-7.454 7.351-1.06 7.351-1.06Z" fill="#ffb27d" fill-rule="evenodd" data-name="Path 5313"/><path d="M1469.997 1969.072h-12.032s-.288-1.833.34-3.225c.602-1.335 1.546-1.941 1.32-3.556.764.787 2.01 1.668 3.75 1.434.213.346 1.375 2.195 2.087 2.706.787.565 4.293.363 4.535 2.641Z" fill="#233862" fill-rule="evenodd" data-name="Path 5314"/><path d="M1467.076 1866.333s18.203-3.435 21.311-5.89c3.109-2.454 10.765-21.237 10.765-21.237l-1.93-.85s-12.64 17.507-13.519 17.998c-.879.49-14.38-.84-16.628 1.257-2.248 2.097 0 8.722 0 8.722Z" fill="#ffb27d" fill-rule="evenodd" data-name="Path 5315"/><path d="M1466.326 1895.513c.104.311.641 10.475-.953 27.325-1.06 11.211-.246 22.943-.876 26.405 0 0-6.581.758-10.48-1.654 0 0-9.266-52.372-3.999-54.15 5.268-1.776 16.308 2.074 16.308 2.074Z" fill="#2b478b" fill-rule="evenodd" data-name="Path 5316"/><path d="m1464.32 1856.533 7.251 11.466a.417.417 0 0 1 .044-.154c.912-1.9 15.468-6.143 16.486-6.79 1.047-.666 2.437-3.309 2.437-3.309-.561-3.023-3.994-4.88-3.994-4.88s-2.79 2.89-3.107 3.239c-.318.348-10.52-.333-13.47-.429-2.952-.095-5.646.857-5.646.857Z" fill="#d8716b" fill-rule="evenodd" data-name="Path 5317"/><path d="M1471.615 1867.844c.912-1.9 15.468-6.142 16.486-6.789 0 0-14.521.332-16.486 6.79Z" fill="#b84c42" fill-rule="evenodd" data-name="Path 5318"/><path d="m1442.568 1894.647.006.008c.123.171.283.312.468.413 9.046 4.975 20.024 2.188 23.39 1.032a1.7 1.7 0 0 0 1.145-1.593c.168-15.63 3.701-16.955 4.246-24.853.545-7.903-1.176-12.79-1.176-12.79l-6.136-.394s-2.374.915-5.582.672c-.67-.052-1.592-.769-1.592-.769s-3.952-.35-4.843.383c-3.972 3.269-4.126 15.315-3.999 23.243.067 4.098-1.698 6.145-2.976 8.06-1.209 1.81-2.345 3.77-3.04 5.005-.28.5-.246 1.118.089 1.583Z" fill="#d8716b" fill-rule="evenodd" data-name="Path 5319"/><path d="m1442.568 1894.647.006.008c1.024 1.09 5.925-4.09 6.876-7.136.952-3.046-.955-7.52-.955-7.52.066 4.097-1.699 6.143-2.976 8.059-1.21 1.81-2.346 3.77-3.04 5.005-.282.5-.247 1.119.089 1.584Z" fill="#b84c42" fill-rule="evenodd" data-name="Path 5320"/><path d="M1432.646 1891.4s-.473 3.07-1.235 3.927c-.762.857-2.904 2.475-3.237 1.523-.333-.952 1.047-3.47 1-3.878-.048-.406-1 .63-1.285.47-.286-.162 2.237-2.556 2.237-2.556l2.52.513Z" fill="#ffb27d" fill-rule="evenodd" data-name="Path 5321"/><path d="M1462.683 1839.206s2.788-.611 3.393 1.575c.606 2.186-2.44 4.833-3.393 6.413-.952 1.58-3.012 6.295-4.124 6.413-1.112.117-4.09-4.548-5.266-5.595-1.176-1.047-2.319-5.998 1.584-7.711 3.902-1.714 7.806-1.095 7.806-1.095Z" fill="#2b478b" fill-rule="evenodd" data-name="Path 5322"/><path d="M1450.866 1867.998c4.836 1.466 4.297 6.384 4.297 6.384s6.6-1.3 7.362-4.95c.876-4.195-.73-6.664-.73-6.664 1.433.429 2.09 1.994 2.397 3.513.18-1.794-.338-3.637-1.76-5.226-3.502-3.913-8.808-3.848-6.983-6.316 5.257-7.107 1.463-15.138 1.463-15.138s-1.858-1.518-6.413-.503c-4.554 1.015-5.883 7.368-5.14 10.057 1.685 6.092-.19 5.997-2 9.805-1.808 3.808 3.249 7.747 7.507 9.038Z" fill="#2b478b" fill-rule="evenodd" data-name="Path 5323"/><path d="M1497.222 1838.357s-.521-.594-.648-1.229c-.127-.635-.288-2.54.19-2.316.478.223.635 2.606 1.809 1.763s-1.35 1.782-1.35 1.782Z" fill="#ffb27d" fill-rule="evenodd" data-name="Path 5324"/><path d="M1465.564 1839.851s2.45 2.473-2.563 9.662c0 0 .73-3.246-1.555-3.722s4.118-5.94 4.118-5.94Z" fill="#2b478b" fill-rule="evenodd" data-name="Path 5325"/></g><path d="m1502.329 1823.322 3.19-4.598 7.542 7.212a1.924 1.924 0 0 1-.472 3.113l-3.227 1.607-7.033-7.334Z" fill="#c6916d" fill-rule="evenodd" data-name="Path 5326"/><g data-name="Group 4193"><path d="M1593.718 1881.585c0-6.166-4.999-11.165-11.165-11.165-6.166 0-11.165 4.999-11.165 11.165v87.106h14.724v-76.52a11.17 11.17 0 0 0 7.606-10.586Z" fill="#4f7bba" fill-rule="evenodd" data-name="Path 5327"/><path d="M1673.15 1926.609h-90.598v-41.323c0-8.21 6.655-14.865 14.864-14.865h85.884l-10.15 56.188Z" fill="#b2cbfd" fill-rule="evenodd" data-name="Path 5328"/><path d="M1539.956 1908.798h33.026v59.67h-33.026v-59.67z" fill="#4f7bba" fill-rule="evenodd" data-name="Rectangle 2229"/><path d="M1564.985 1926.609h67.965v14.962h-67.965a3.712 3.712 0 0 1-3.712-3.713v-7.537a3.713 3.713 0 0 1 3.712-3.712Z" fill="#7a97f3" fill-rule="evenodd" data-name="Rectangle 2230"/><path d="M1524.363 1924.39c0-8.61 6.981-15.592 15.593-15.592 8.611 0 15.592 6.981 15.592 15.593v44.078h-19.162v-28.897a15.598 15.598 0 0 1-12.023-15.181Z" fill="#7a97f3" fill-rule="evenodd" data-name="Path 5329"/><path d="M1736.147 1926.609h-88.173v-41.323c0-8.21 6.655-14.865 14.865-14.865h71.896l1.412 56.188Z" fill="#b2cbfd" fill-rule="evenodd" data-name="Path 5330"/><path d="M1688.302 1908.798h49.736v59.67h-49.736v-59.67z" fill="#466aa5" fill-rule="evenodd" data-name="Rectangle 2231"/><path d="M1745.9 1881.676c0-6.216-4.998-11.255-11.165-11.255-6.166 0-11.165 5.04-11.165 11.255v86.676h14.724v-76.006a11.252 11.252 0 0 0 7.607-10.67Z" fill="#466aa5" fill-rule="evenodd" data-name="Path 5331"/><path d="M1620.037 1926.609h61.57v14.962h-61.57a3.712 3.712 0 0 1-3.713-3.713v-7.537a3.712 3.712 0 0 1 3.713-3.712Z" fill="#4f7bba" fill-rule="evenodd" data-name="Rectangle 2232"/><path d="M1621.316 1926.609h61.57v14.962h-61.57a3.713 3.713 0 0 1-3.713-3.713v-7.537a3.712 3.712 0 0 1 3.713-3.712Z" fill="#7a97f3" fill-rule="evenodd" data-name="Rectangle 2233"/><path d="M1703.896 1924.39c0-8.61-6.981-15.592-15.593-15.592-8.611 0-15.592 6.981-15.592 15.593v44.078h19.162v-29.427c6.89-1.615 12.023-7.268 12.023-14.651Z" fill="#7a97f3" fill-rule="evenodd" data-name="Path 5332"/><path d="M1566.708 1941.57h106.001v26.898h-106.001v-26.897z" fill="#466aa5" fill-rule="evenodd" data-name="Rectangle 2234"/><path d="M1684.49 1924.982a3.133 3.133 0 1 1 0 .1z" fill="#4f7bba" fill-rule="evenodd" data-name="Ellipse 497"/><path d="M1536.271 1924.982a3.133 3.133 0 1 1 0 .1z" fill="#4f7bba" fill-rule="evenodd" data-name="Ellipse 498"/><path d="M1688.582 1925.403s2.014-3.261 4.86-3.197c0 0-3.101-.896-6.075 2.525l.543 2.078c2.393-.874 2.095 4.512 2.095 4.512s1.86-7.411-1.423-5.918Z" fill="#4f7bba" fill-rule="evenodd" data-name="Path 5333"/><path d="M1688.302 1917.065s-2.179 4.541-.107 7.899c2.071 3.358-1.358.508-1.358.508s-1.749-3.575 1.465-8.407Z" fill="#4f7bba" fill-rule="evenodd" data-name="Path 5334"/><path d="M1533.16 1927.916s.426-3.069 5.328-2.835c4.902.235 0 1.527 0 1.527s-2.771-.908-5.329 1.308Z" fill="#4f7bba" fill-rule="evenodd" data-name="Path 5335"/></g><g data-name="Group 4195"><path d="m1496.657 1944.696-.036.544-.05.755-1.498 21.985h-19.495l-1.875-21.988-.087-1.02-.024-.276h23.065Z" fill="#2b478b" fill-rule="evenodd" data-name="Path 5336"/><path d="m1496.657 1944.696-.037.544-.05.755-1.497 21.985h-8.056l2.53-23.284h7.11Z" fill="#33579e" fill-rule="evenodd" data-name="Path 5337"/><path d="m1496.62 1945.24-.05.755c-.848-.084-7.733-.75-11.137-.75-3.386 0-10.747.658-11.73.748l-.087-1.02 23.004.267Z" fill="#233862" fill-rule="evenodd" data-name="Path 5338"/><path d="M1496.999 1945.246h-23.397a.276.276 0 0 1-.275-.275c0-.152.124-.275.275-.275H1497c.151 0 .274.123.275.275a.276.276 0 0 1-.275.275Z" fill="#2b478b" fill-rule="evenodd" data-name="Path 5339"/><g data-name="Group 4194"><path d="M1484.595 1952.585c-10.095 0-11.254-7.538-11.268-7.615.053.302 1.676 7.33 11.791 7.08 10.155-.26 12.14-6.963 12.156-7.031-.017.072-1.585 7.29-12.143 7.56-.18.005-.36.006-.536.006Z" fill="#f99746" fill-rule="evenodd" data-name="Path 5340"/></g><path d="M1486.549 1952.926h-3.818a.867.867 0 0 1-.864-.864.867.867 0 0 1 .864-.864h3.818a.867.867 0 0 1 .864.864.867.867 0 0 1-.864.864Z" fill="#f99746" fill-rule="evenodd" data-name="Path 5341"/><path d="M1495.229 1967.98h-19.932l.143-1.627h19.744l.045 1.627Z" fill="#233862" fill-rule="evenodd" data-name="Path 5342"/></g><g data-name="Group 4197"><path d="m1519.559 1949.125-.03.442-.044.612-.152 2.252-.724 10.633-.334 4.916h-15.788l-.421-4.916-.902-10.599-.196-2.29-.069-.824-.017-.227h18.677Z" fill="#ed7d2b" fill-rule="evenodd" data-name="Path 5343"/><path d="m1519.556 1949.126-.03.44-.041.612-1.213 17.802h-6.523l2.05-18.854h5.757Z" fill="#f99746" fill-rule="evenodd" data-name="Path 5344"/><path d="m1519.526 1949.566-.041.612c-.686-.068-6.262-.607-9.019-.607-2.741 0-8.702.532-9.497.605l-.07-.826 18.627.216Z" fill="#d36922" fill-rule="evenodd" data-name="Path 5345"/><path d="M1519.832 1949.571h-18.945a.224.224 0 0 1-.223-.223c0-.123.1-.222.223-.223h18.945c.123 0 .222.1.222.223s-.1.223-.222.223Z" fill="#f99746" fill-rule="evenodd" data-name="Path 5346"/><g data-name="Group 4196"><path d="M1509.789 1955.515c-8.175 0-9.113-6.104-9.124-6.166.043.244 1.357 5.935 9.548 5.733 8.223-.211 9.83-5.638 9.842-5.694-.013.059-1.283 5.903-9.832 6.122a33.85 33.85 0 0 1-.434.005Z" fill="#33579e" fill-rule="evenodd" data-name="Path 5347"/></g><path d="M1511.37 1955.791h-3.091a.702.702 0 0 1-.7-.7.702.702 0 0 1 .7-.7h3.091a.702.702 0 0 1 .7.7.702.702 0 0 1-.7.7Z" fill="#2b478b" fill-rule="evenodd" data-name="Path 5348"/><path d="M1518.4 1967.98h-16.14l.116-1.318h15.987l.038 1.318Z" fill="#d36922" fill-rule="evenodd" data-name="Path 5349"/></g><path d="M1678.51 1871.524a1.477 1.477 0 0 0-1.098-2.467h-76.192s-10.254.338-11.234 1.365c-.98 1.026-14.477-4.855-20.207 3.966-5.73 8.822.905 31.668-31.668 33.327-18.397 1.055-18.85 18.662-11.46 60.754l67.067-.488s23.412-1.082 29.293-6.773c5.88-5.69 12.064-28.913 23.826-29.215 11.762-.301 7.389-4.966 12.516-5.5 0 0 8.12-42.944 19.157-54.969Z" fill="#ddeaf4" fill-rule="evenodd" data-name="Path 5350"/><path d="M1583.803 1888.713s-8.595 27.898-28.802 34.986c0 0 14.929-2.413 22.469-15.683 0 0-4.675 18.477-30.763 18.477l66.954.217s-32.421.457-29.858-37.997Z" fill="#c7dcf9" fill-rule="evenodd" data-name="Path 5351"/><path d="M1653.623 1876.8s-15.985 36.497-34.684 40.265c0 0 23.374 1.657 34.684-40.265Z" fill="#c7dcf9" fill-rule="evenodd" data-name="Path 5352"/><path d="M1626.78 1880.118s-6.107 23.378-29.669 36.947c0 0 21.996-5.384 29.67-36.947Z" fill="#c7dcf9" fill-rule="evenodd" data-name="Path 5353"/><path d="M1546.707 1964.866s56.398 5.882 73.74-17.945c0 0-4.222 25.938-73.74 17.945Z" fill="#c7dcf9" fill-rule="evenodd" data-name="Path 5354"/><path d="M1617.603 1943.453s-5.902 9.176-19.172 12.43c0 0 13.538-.366 19.172-12.43Z" fill="#c7dcf9" fill-rule="evenodd" data-name="Path 5355"/><path d="M1627.836 1947.826s-4.6 11.235-12.968 14.703c0 0 9.5 1.206 12.968-14.703Z" fill="#c7dcf9" fill-rule="evenodd" data-name="Path 5356"/><path d="M1537.558 1934.757s-.302 18.496 3.72 24.83c4.02 6.335 19.994 3.155 19.994 3.155s-14.566-2.887-15.57-10.61c0 0-.315 4.138 1.004 7.042 0 0-7.136-6.12-9.148-24.417Z" fill="#c7dcf9" fill-rule="evenodd" data-name="Path 5357"/><g data-name="Group 4200"><g data-name="Group 4198"><path d="M1719.662 1968.314h34.83l-5.464-44.507h-34.831l5.465 44.507Z" fill="#d39e7a" fill-rule="evenodd" data-name="Path 5358"/><path d="M1721.03 1968.314h34.832l-5.465-44.507h-34.831l5.465 44.507Z" fill="#efcbab" fill-rule="evenodd" data-name="Path 5359"/><path d="M1722.79 1966.01h30.746l-4.923-40.093h-30.744l4.922 40.092Z" fill="#f9ddbf" fill-rule="evenodd" data-name="Path 5360"/><path d="M1719.917 1947.187h31.842l-.276-2.245h-31.842l.276 2.245Z" fill="#efcbab" fill-rule="evenodd" data-name="Path 5361"/><path d="m1751.212 1930.44-.815-6.633h-6.632l7.447 6.632Z" fill="#e5bd9e" fill-rule="evenodd" data-name="Path 5362"/><path d="m1716.38 1930.44-.814-6.633h6.632l-5.818 6.632Z" fill="#e5bd9e" fill-rule="evenodd" data-name="Path 5363"/><path d="M1749.23 1968.32h6.632l-.814-6.632-5.818 6.632Z" fill="#e5bd9e" fill-rule="evenodd" data-name="Path 5364"/><path d="M1727.665 1968.32h-6.633l-.814-6.632 7.447 6.632Z" fill="#e5bd9e" fill-rule="evenodd" data-name="Path 5365"/></g><g data-name="Group 4199"><path d="M1712.212 1968.303h26.462l-4.152-33.812h-26.461l4.151 33.812Z" fill="#d39e7a" fill-rule="evenodd" data-name="Path 5366"/><path d="M1713.358 1968.303h26.462l-4.152-33.812h-26.461l4.151 33.812Z" fill="#efcbab" fill-rule="evenodd" data-name="Path 5367"/><path d="M1714.696 1966.552h23.357l-3.74-30.458h-23.357l3.74 30.458Z" fill="#f9ddbf" fill-rule="evenodd" data-name="Path 5368"/><path d="M1712.512 1952.252h24.191l-.21-1.706h-24.19l.21 1.706Z" fill="#efcbab" fill-rule="evenodd" data-name="Path 5369"/><path d="m1736.287 1939.53-.618-5.04h-5.039l5.657 5.04Z" fill="#e5bd9e" fill-rule="evenodd" data-name="Path 5370"/><path d="m1709.825 1939.53-.618-5.04h5.038l-4.42 5.04Z" fill="#e5bd9e" fill-rule="evenodd" data-name="Path 5371"/><path d="M1734.782 1968.308h5.039l-.619-5.039-4.42 5.039Z" fill="#e5bd9e" fill-rule="evenodd" data-name="Path 5372"/><path d="M1718.398 1968.308h-5.04l-.618-5.039 5.658 5.039Z" fill="#e5bd9e" fill-rule="evenodd" data-name="Path 5373"/></g></g></g></g><defs><clipPath id="a"><path d="M51 0h170.955c28.167 0 51 22.833 51 51v121.556c0 28.166-22.833 51-51 51H51c-28.167 0-51-22.834-51-51V51C0 22.833 22.833 0 51 0Z" data-name="Path 5298" transform="translate(1387.187 1745.517)"/></clipPath></defs></svg>