<svg xmlns="http://www.w3.org/2000/svg" width="36.875" height="33.035" viewBox="12757 12222.32 36.875 33.035"><g data-name="Group 3614"><g data-name="Path 777"><path d="M12793.875 12245.86c-1.415 1.313-3.233 1.616-4.95 1.919a39.724 39.724 0 0 1-17.58-.606c-.909-.202-1.717-.606-2.525-1.112-.606-.303-.606-.808-.101-1.313 3.03-2.526 4.041-6.061 4.243-9.8.202-3.434 1.414-6.263 4.142-8.385l.91-.606c.606-.303.909-.606 1.01-1.313 0-1.212 1.01-1.92 2.02-2.324h1.314c1.313.606 2.121 1.415 2.121 2.93 0 .202.202.505.505.606 3.132 1.617 4.95 4.243 5.355 7.678.303 2.829.606 5.759 1.717 8.385.505 1.112 1.212 2.122 1.819 3.132v.808Z" fill="#ef1f75" fill-rule="evenodd"/><path d="M12793.875 12245.86c-1.415 1.313-3.233 1.616-4.95 1.919a39.724 39.724 0 0 1-17.58-.606c-.909-.202-1.717-.606-2.525-1.112-.606-.303-.606-.808-.101-1.313 3.03-2.526 4.041-6.061 4.243-9.8.202-3.434 1.414-6.263 4.142-8.385l.91-.606c.606-.303.909-.606 1.01-1.313 0-1.212 1.01-1.92 2.02-2.324h1.314c1.313.606 2.121 1.415 2.121 2.93 0 .202.202.505.505.606 3.132 1.617 4.95 4.243 5.355 7.678.303 2.829.606 5.759 1.717 8.385.505 1.112 1.212 2.122 1.819 3.132v.808Z" stroke-linejoin="round" stroke-linecap="round" stroke="#ef1f75" fill="transparent"/></g><g data-name="Path 778"><path d="M12757 12230.2c.606-.808 1.414-1.11 2.526-1.11h10.102c-.505 1.211-.909 2.323-1.414 3.535-3.132 0-6.264.101-9.497 0-.606 0-1.11-.707-1.717-1.01v-1.415Z" fill="#ef1f75" fill-rule="evenodd"/><path d="M12757 12230.2c.606-.808 1.414-1.11 2.526-1.11h10.102c-.505 1.211-.909 2.323-1.414 3.535-3.132 0-6.264.101-9.497 0-.606 0-1.11-.707-1.717-1.01v-1.415Z" stroke-linejoin="round" stroke-linecap="round" stroke="#ef1f75" fill="transparent"/></g><g data-name="Path 779"><path d="M12757 12238.08c.505-.808 1.212-1.212 2.223-1.11 2.525.1 5.152 0 7.678 0h1.11c-.201 1.11-.302 2.02-.504 2.929 0 .202-.404.505-.606.505h-8.285c-.808 0-1.313-.505-1.616-1.212v-1.112Z" fill="#ef1f75" fill-rule="evenodd"/><path d="M12757 12238.08c.505-.808 1.212-1.212 2.223-1.11 2.525.1 5.152 0 7.678 0h1.11c-.201 1.11-.302 2.02-.504 2.929 0 .202-.404.505-.606.505h-8.285c-.808 0-1.313-.505-1.616-1.212v-1.112Z" stroke-linejoin="round" stroke-linecap="round" stroke="#ef1f75" fill="transparent"/></g><g data-name="Path 780"><path d="M12786.197 12255.255c-1.314-.505-2.324-1.314-2.324-2.93 1.818-.303 3.738-.505 5.556-.808.506 1.313 0 2.728-1.313 3.435-.202.1-.505.202-.707.404-.505-.101-.808-.101-1.212-.101Z" fill="#ef1f75" fill-rule="evenodd"/><path d="M12786.197 12255.255c-1.314-.505-2.324-1.314-2.324-2.93 1.818-.303 3.738-.505 5.556-.808.506 1.313 0 2.728-1.313 3.435-.202.1-.505.202-.707.404-.505-.101-.808-.101-1.212-.101Z" stroke-linejoin="round" stroke-linecap="round" stroke="#ef1f75" fill="transparent"/></g></g></svg>