<svg xmlns="http://www.w3.org/2000/svg" width="478.085" height="472.536" viewBox="646 2859.877 478.085 472.536"><g data-name="Group 4157"><g data-name="Group 4003"><g data-name="Group 3998"><g data-name="Group 3996"><g data-name="Group 3993"><g data-name="Group 3992"><path d="M942.931 3026.409h141.446v-156.261H942.931v156.261Z" fill="#d3d3d3" fill-rule="evenodd" data-name="Path 4976"/></g></g><path d="M937.934 2864.666h146.678v162H937.934v-162z" fill="#fff" fill-rule="evenodd" data-name="Rectangle 2183"/><g data-name="Group 3995"><g data-name="Group 3994"><path d="M1089.147 3031.454H933.399v-171.576h155.748v171.576Zm-148.597-7.657h141.446v-156.261H940.55v156.261Z" fill="#a2a0e6" fill-rule="evenodd" data-name="Path 4977"/></g></g><path d="M958.434 2885.326h105.555v118.868H958.434v-118.868z" fill="#ffce91" fill-rule="evenodd" data-name="Rectangle 2184"/></g><g data-name="Group 3997"><path d="M968.794 2913.328a16.22 16.22 0 1 1 0 .1z" fill="#f7a742" fill-rule="evenodd" data-name="Ellipse 475"/><path d="M996.472 2961.816a30.423 30.423 0 1 1 0 .1z" fill="#f7a742" fill-rule="evenodd" data-name="Ellipse 476"/><path d="M1016.358 2919.83v-14.553h24.185v14.552h-24.185z" fill="#f8e5c9" fill-rule="evenodd" data-name="Rectangle 2185"/></g></g><g data-name="Group 4002"><g data-name="Group 4001"><g data-name="Group 3999"><path d="M869.728 2956.985c0-9.679-8.16-15.907-18.224-15.907-10.065 0-18.225 6.228-18.225 15.907 0 6.337 3.5 11.887 8.74 14.965h18.968c5.242-3.078 8.741-8.628 8.741-14.965Z" fill="#2d2d2d" fill-rule="evenodd" data-name="Path 4978"/></g><g data-name="Group 4000"><path d="M709.63 2971.788h191.392v9.45H709.63v-9.45z" fill="#fff" fill-rule="evenodd" data-name="Rectangle 2186"/></g><path d="M736.657 2911.973h10.074a.878.878 0 0 1 .878.879v57.802a.878.878 0 0 1-.878.878h-10.074a.878.878 0 0 1-.878-.878v-57.802a.878.878 0 0 1 .878-.879z" fill="#ff6f92" fill-rule="evenodd" data-name="Rectangle 2187"/><path d="M750.465 2911.973h10.073a.878.878 0 0 1 .879.879v57.802a.878.878 0 0 1-.878.878h-10.074a.878.878 0 0 1-.879-.878v-57.802a.878.878 0 0 1 .879-.879z" fill="#ff6f92" fill-rule="evenodd" data-name="Rectangle 2188"/><path d="M763.986 2911.973h10.074a.878.878 0 0 1 .878.878v57.803a.878.878 0 0 1-.878.878h-10.074a.878.878 0 0 1-.878-.878v-57.802a.878.878 0 0 1 .878-.879z" fill="#2d2d2d" fill-rule="evenodd" data-name="Rectangle 2189"/><path d="m812.201 2965.251-7.35 4.582c-.8.498-1.823.202-2.283-.661l-25.911-48.453c-.46-.863-.187-1.967.612-2.466l7.35-4.58c.8-.5 1.823-.203 2.283.66l25.911 48.452c.46.863.187 1.967-.612 2.466Z" fill="#ff6f92" fill-rule="evenodd" data-name="Path 4979"/><path d="m828.599 2965.251-7.35 4.582c-.802.498-1.823.202-2.284-.661l-25.91-48.453c-.463-.863-.188-1.967.611-2.466l7.35-4.58c.8-.5 1.821-.203 2.283.66l25.91 48.452c.462.863.189 1.967-.61 2.466Z" fill="#ff6f92" fill-rule="evenodd" data-name="Path 4980"/></g><path d="M737.664 2919.466h7.897v8.49h-7.897v-8.49z" fill="#fff" fill-rule="evenodd" data-name="Rectangle 2190"/><path d="M751.553 2964.59h7.897v2.18h-7.897v-2.18z" fill="#fff" fill-rule="evenodd" data-name="Rectangle 2191"/><path d="M751.553 2959.328h7.897v2.18h-7.897v-2.18z" fill="#fff" fill-rule="evenodd" data-name="Rectangle 2192"/></g></g><g data-name="Group 3991"><g data-name="Group 3961"><g data-name="Group 3955"><g data-name="Group 3954"><path d="m931.158 3311.498-3.799-27.402 19.72-3.742 4.294 34.174-14.88 3.15-5.335-6.18Z" fill="#f9b8b2" fill-rule="evenodd" data-name="Path 4922"/><g data-name="Group 3953"><g data-name="Group 3952"><path d="M929.749 3311.505s14.855 6.003 21.757-3.647l29.483 18.353-55.745-.022 4.505-14.684Z" fill="#09183d" fill-rule="evenodd" data-name="Path 4923"/><path d="m981.02 3331.09-55.745-.023-.03-4.878 55.745.022.03 4.879Z" fill="#fff" fill-rule="evenodd" data-name="Path 4924"/><path d="M951.186 3315.96c.159-.066.302-.173.413-.318 2.307-3.066 4.637-4.585 4.66-4.6.46-.297.58-.89.27-1.328-.31-.44-.942-.542-1.394-.258-.107.068-2.636 1.708-5.172 5.073a.926.926 0 0 0 .232 1.333c.299.204.676.23.99.099Z" fill="#fff" fill-rule="evenodd" data-name="Path 4925"/><path d="M956.095 3318.38a.993.993 0 0 0 .413-.32c2.31-3.063 4.638-4.584 4.662-4.6a.928.928 0 0 0 .268-1.328c-.309-.437-.944-.546-1.392-.258-.109.069-2.636 1.709-5.171 5.073a.928.928 0 0 0 .23 1.335c.298.202.675.228.99.097Z" fill="#fff" fill-rule="evenodd" data-name="Path 4926"/><path d="M961.004 3320.798a.993.993 0 0 0 .414-.319c2.31-3.064 4.64-4.585 4.661-4.6.46-.295.581-.89.27-1.328-.31-.436-.943-.547-1.393-.258-.107.068-2.636 1.708-5.172 5.07a.926.926 0 0 0 .232 1.336c.299.204.674.23.988.099Z" fill="#fff" fill-rule="evenodd" data-name="Path 4927"/></g></g></g><path d="M931.705 3140.338s23.823 83.457 24.908 152.47l-39.56 7.033s-4.28-71.926-22.342-132.067l-1.301-27.436h38.295Z" fill="#f7a742" fill-rule="evenodd" data-name="Path 4928"/></g><g data-name="Group 3960"><g data-name="Group 3958"><path d="m802.5 3284.396 15.604-22.845 17.117 10.482-19.786 28.192-13.137-7.668.203-8.161Z" fill="#f9b8b2" fill-rule="evenodd" data-name="Path 4929"/><g data-name="Group 3957"><g data-name="Group 3956"><path d="M801.453 3283.454s6.967 14.43 18.563 11.921l9.498 33.406-41.264-37.48 13.203-7.847Z" fill="#09183d" fill-rule="evenodd" data-name="Path 4930"/><path d="m826.258 3332.413-41.264-37.48 3.256-3.632 41.265 37.48-3.257 3.632Z" fill="#fff" fill-rule="evenodd" data-name="Path 4931"/><path d="M814.332 3301.16c.163.058.341.074.52.042 3.77-.718 6.518-.28 6.544-.276a.926.926 0 0 0 1.091-.8c.067-.533-.333-1.036-.857-1.128-.125-.023-3.1-.507-7.24.28a.928.928 0 0 0-.726 1.144c.085.35.347.623.668.738Z" fill="#fff" fill-rule="evenodd" data-name="Path 4932"/><path d="M816.343 3306.25c.163.06.34.075.52.043 3.77-.718 6.515-.278 6.544-.274a.928.928 0 0 0 1.09-.803c.065-.532-.33-1.039-.856-1.127-.125-.023-3.1-.507-7.24.28a.927.927 0 0 0-.726 1.144c.085.35.347.623.668.738Z" fill="#fff" fill-rule="evenodd" data-name="Path 4933"/><path d="M818.354 3311.342c.163.056.34.074.52.04 3.77-.716 6.515-.276 6.544-.272a.93.93 0 0 0 1.09-.803c.065-.532-.33-1.039-.856-1.127-.125-.023-3.1-.507-7.24.28a.927.927 0 0 0-.726 1.144c.085.35.347.623.668.738Z" fill="#fff" fill-rule="evenodd" data-name="Path 4934"/></g></g></g><g data-name="Group 3959"><path d="M903.868 3169.37s-15.596 56.982-65.973 117.782l-33.307-21.657s31.086-43.736 39.792-70.19c8.705-26.456 13.982-64.395 47.725-82.854l39.6 27.887-27.837 29.031Z" fill="#f7a742" fill-rule="evenodd" data-name="Path 4935"/><path d="m899.071 3183.498 18.082-8.769" stroke-linejoin="round" stroke-linecap="round" stroke-width=".704" stroke="#de8420" fill="transparent" data-name="Line 171"/></g></g></g><g data-name="Group 3968"><g data-name="Group 3966"><g data-name="Group 3962"><path d="m986.354 3123.704-3.771 37.724c-.416 5.805-3.849 10.039-9.638 9.46a10.33 10.33 0 0 1-9.304-10.188l-.206-38.142 22.92 1.146Z" fill="#f9b8b2" fill-rule="evenodd" data-name="Path 4936"/><path d="m990.082 3132.895 2.727-20.822c.585-7.91-5.05-14.926-12.901-16.06-8.4-1.214-15.448 4.614-16.453 13.04l-2.96 23.16 29.587.682Z" fill="#fff" fill-rule="evenodd" data-name="Path 4937"/></g><g data-name="Group 3965"><path d="M974.765 3152.148c-6.114-.823-11.44 4.752-10.836 10.89l11.971 48.822 13.597-.361-6.914-50.07c.117-4.874-2.988-8.632-7.818-9.281Z" fill="#f9b8b2" fill-rule="evenodd" data-name="Path 4938"/><g data-name="Group 3963"><path d="M973.165 3213.28c.853-6.31 6.658-10.733 12.968-9.882 6.31.852 10.734 6.657 9.883 12.968-.851 6.31-6.658 10.734-12.967 9.881-6.31-.85-10.735-6.656-9.884-12.967Z" fill="#f9b8b2" fill-rule="evenodd" data-name="Path 4939"/><path d="M991.805 3223.807s4.77 2.208 6.036-3.708c1.267-5.916-.367-14.256-11.708-16.7l5.672 20.408Z" fill="#f9b8b2" fill-rule="evenodd" data-name="Path 4940"/></g><g data-name="Group 3964"><path d="M973.165 3213.28c.853-6.31 6.658-10.733 12.968-9.882 6.31.852 10.734 6.657 9.883 12.968-.851 6.31-6.658 10.734-12.967 9.881-6.31-.85-10.735-6.656-9.884-12.967Z" fill="#f9b8b2" fill-rule="evenodd" data-name="Path 4941"/><path d="M991.805 3223.807s4.77 2.208 6.036-3.708c1.267-5.916-.367-14.256-11.708-16.7l5.672 20.408Z" fill="#f9b8b2" fill-rule="evenodd" data-name="Path 4942"/></g></g></g><g data-name="Group 3967"><path d="m923.728 3076.031 20.204-20.053 9.069 6.785 28.365 29.664 4.414 3.14 4.155 6.375a2.993 2.993 0 0 1-1.582 4.482l-7.13 2.313c-5.537 7.203-14.603 17.726-25.566 21.104l-20.093 24.086s-52.37 1.99-53.87-35.292l42.034-42.604Z" fill="#fff" fill-rule="evenodd" data-name="Path 4943"/><path d="M961.091 3127.534s8.3-2.122 17.03-15.083" stroke-linejoin="round" stroke-linecap="round" stroke-width=".704" stroke="#dcdcdc" fill="transparent" data-name="Path 4944"/></g></g><g data-name="Group 3975"><g data-name="Group 3971"><path d="M991.088 3014.669c-3.77 6.257-1.754 14.387 4.504 18.157 6.257 3.772 14.388 1.755 18.158-4.502 3.772-6.259 1.757-14.387-4.502-18.16-6.257-3.769-14.388-1.754-18.16 4.505Z" fill="#452c14" fill-rule="evenodd" data-name="Path 4945"/><g data-name="Group 3970"><path d="M1012.977 3034.502s.313-8.082-11.313-8.217c-11.628-.133-11.65 9.119-11.65 9.119l22.963-.902Z" fill="#fc4c77" fill-rule="evenodd" data-name="Path 4946"/><g data-name="Group 3969"><path d="M1009.211 3029.147s4.406-2.06 10.17.942c0 0-8.437 5.583-11.761.422l1.591-1.364Z" fill="#ff6f92" fill-rule="evenodd" data-name="Path 4947"/><path d="M1006.52 3028.116s.166-2.737-7.591-5.764c0 0-1.025 9.119 7.233 7.493" fill="#ff6f92" fill-rule="evenodd" data-name="Path 4948"/><path d="M1006.125 3028.899a1.82 1.82 0 1 0 3.548.818 1.82 1.82 0 0 0-3.548-.818Z" fill="#ff6f92" fill-rule="evenodd" data-name="Path 4949"/></g></g></g><g data-name="Group 3972"><path d="M982.932 3039.341c-7.302 10.112-6.455 25.63 3.658 32.934 10.112 7.302 23.12 1.176 32.959-6.489 10.434-8.13 5.026-24.228-5.085-31.532-10.112-7.301-24.229-5.024-31.532 5.087Z" fill="#452c14" fill-rule="evenodd" data-name="Path 4950"/></g><path d="m989.44 3076.065-9.609 7.538c-3.983 3.13-8.044 2.348-11.093-1.598-2.604-3.37-6.402-5.887-3.38-8.889l19.891-13.768 4.192 16.717Z" fill="#f9b8b2" fill-rule="evenodd" data-name="Path 4951"/><path d="m981.453 3082.34-1.184-18.734 10.354 11.571-9.17 7.164Z" fill="#ea948f" fill-rule="evenodd" data-name="Path 4952"/><path d="M985.34 3078.92c6.11 5.92 15.75 6.02 20.685 1.248l11.57-11.332c6.181-5.982 6.448-15.858.6-22.318-5.984-6.614-17.18-8.345-23.71-2.435l-9.206 9.218c-7.118 7.128-6.787 18.052.06 25.618Z" fill="#f9b8b2" fill-rule="evenodd" data-name="Path 4953"/><g data-name="Group 3973"><path d="m1002.218 3071.926-1.812 2.376-1.68-1.45" stroke-linejoin="round" stroke-linecap="round" stroke-width=".552" stroke="#1f120a" fill="transparent" data-name="Path 4954"/><path d="M1002.854 3057.48s2.902 2.278 1.876 3.433c0 0-.716.765-3.203-1.27-2.49-2.034-2.933-2.78-2.477-3.7.455-.917 2.535.37 3.804 1.537Z" fill="#1f120a" fill-rule="evenodd" data-name="Path 4955"/><path d="M1013.288 3067.761s-2.001-2.305-3.17-1.412c0 0-.776.621 1.016 2.594 1.793 1.973 2.662 2.308 3.388 1.898.82-.464-.195-2.08-1.234-3.08Z" fill="#1f120a" fill-rule="evenodd" data-name="Path 4956"/><path d="M1006.634 3071.602a1.387 1.387 0 1 0 1.944 1.979 1.386 1.386 0 1 0-1.944-1.98Z" fill="#1f120a" fill-rule="evenodd" data-name="Path 4957"/><path d="M998.245 3063.174a1.468 1.468 0 0 0-.018 2.074 1.465 1.465 0 1 0 .018-2.074Z" fill="#1f120a" fill-rule="evenodd" data-name="Path 4958"/><path d="m996.126 3075.937-1.191-1.212" stroke-linejoin="round" stroke-linecap="round" stroke-width=".552" stroke="#1f120a" fill="transparent" data-name="Line 172"/></g><path d="m965.357 3073.117 14.475 10.486" fill="#f9b8b2" fill-rule="evenodd" data-name="Line 173"/><path d="M991.226 3053.388s7.239-8.829 13.048-8.224c5.809.606 10.7 13.738 17.984 14.479 0 0 2.68-9.055-3.214-15.644-4.917-5.499-17.175-9.384-17.175-9.384l-8.733.05-2.685 11.177.775 7.546Z" fill="#452c14" fill-rule="evenodd" data-name="Path 4959"/><g data-name="Group 3974"><path d="M981.844 3045.757a6.087 6.087 0 1 0 8.526 8.69 6.087 6.087 0 0 0-8.526-8.69Z" fill="#f9b8b2" fill-rule="evenodd" data-name="Path 4960"/><path d="M986.302 3052.888s3.15-3.088-.298-5.616" stroke-linejoin="round" stroke-linecap="round" stroke-width=".507" stroke="#1f120a" fill="transparent" data-name="Path 4961"/></g><path d="M975.75 3080.997s5.858 6.337 10.03 14.57c0 0-17.33.892-32.78-32.804 0 0 7.881 4.335 22.75 18.234Z" fill="#f9b8b2" fill-rule="evenodd" data-name="Path 4962"/></g><g data-name="Group 3990"><g data-name="Group 3984"><g data-name="Group 3978"><g data-name="Group 3977"><path d="m1089.146 3324.573-241.957-248.636" stroke-linejoin="round" stroke-linecap="round" stroke-width="2.818" stroke="#2d2d2d" fill="transparent" data-name="Line 174"/><g data-name="Group 3976"><path d="M1078.591 3322.268h-28.789a8.821 8.821 0 0 0-8.82 8.823h45.022c0-4.874-2.54-8.823-7.413-8.823Z" fill="#2d2d2d" fill-rule="evenodd" data-name="Path 4963"/><path d="M1115.263 3322.268h-42.368a8.821 8.821 0 0 0-8.82 8.823h60.01a8.822 8.822 0 0 0-8.822-8.823Z" fill="#515151" fill-rule="evenodd" data-name="Path 4964"/></g></g><path d="M849.547 3078.36s-40.377-47.533-71.766-8.666c-23.06 28.555-5.922 81.798 4.29 120.33 10.622 40.076 26.811 90.33-32.96 111.194" stroke-linejoin="round" stroke-linecap="round" stroke-width="1.409" stroke="#2d2d2d" fill="transparent" data-name="Path 4965"/></g><g data-name="Group 3983"><g data-name="Group 3981"><path d="m744.347 3296.798 8.196-2.71 5.123 12.232-8.72 3.031-4.599-12.553Z" fill="#6b69b3" fill-rule="evenodd" data-name="Path 4966"/><path d="M646 3313.205h111.666v5.877H646v-5.877z" fill="#fff" fill-rule="evenodd" data-name="Rectangle 2182"/><g data-name="Group 3980"><path d="M648.308 3313.206s-4.883-20.247 13.688-33.586c23.089-16.58 67.123-4.617 82.656 13.435 0 0 10.285 10.495 9.655 21.829l-105.999-1.678Z" fill="#454380" fill-rule="evenodd" data-name="Path 4967"/><g data-name="Group 3979" transform="translate(647.728 3271.723)" clip-path="url(&quot;#a&quot;)"><path d="M29.682-.195S16.325 17.722 43.69 19.025c27.363 1.303 59.613 0 59.613 0S68.447-7.36 29.682-.195Z" fill="#6b69b3" fill-rule="evenodd" data-name="Path 4968"/></g></g></g><g data-name="Group 3982"><path d="M655.471 3315.779a15.615 15.615 0 1 1 0 .1z" fill="#2d2d2d" fill-rule="evenodd" data-name="Ellipse 474"/><path d="M748.22 3320.487c0 6.08-4.928 11.007-11.007 11.007-6.08 0-11.007-4.928-11.007-11.007 0-6.08 4.928-11.007 11.007-11.007 6.08 0 11.007 4.928 11.007 11.007Z" fill="#2d2d2d" fill-rule="evenodd" data-name="Path 4970"/></g></g></g><g data-name="Group 3989"><g data-name="Group 3986"><path d="m913.513 3073.241-34.138-16.348c-5.33-2.335-7.683-8.61-5.198-13.873a10.329 10.329 0 0 1 12.714-5.355l36.01 12.576-9.388 23Z" fill="#f9b8b2" fill-rule="evenodd" data-name="Path 4971"/><g data-name="Group 3985"><path d="m910.123 3071.608 18.706 9.542c7.26 3.2 15.757.238 19.454-6.779 3.955-7.51.825-16.102-6.78-19.87l-20.83-10.545-10.55 27.652Z" fill="#fff" fill-rule="evenodd" data-name="Path 4972"/><path d="m922.045 3077.736 13.177 5.906" stroke-linejoin="round" stroke-linecap="round" stroke-width=".704" stroke="#dcdcdc" fill="transparent" data-name="Line 175"/></g></g><g data-name="Group 3988"><path d="M885.1 3038.226c-5.975-1.54-11.82 2.898-11.943 9.066l-6.035 48.399 12.217 2.566 12.84-49.418a9.56 9.56 0 0 0-7.08-10.613Z" fill="#f9b8b2" fill-rule="evenodd" data-name="Path 4973"/><g data-name="Group 3987"><path d="M859.152 3106.141c-1.887-6.081 1.513-12.54 7.595-14.428 6.08-1.886 12.541 1.515 14.427 7.597 1.886 6.08-1.514 12.54-7.596 14.427-6.08 1.886-12.54-1.514-14.426-7.596Z" fill="#f9b8b2" fill-rule="evenodd" data-name="Path 4974"/><path d="M880.49 3107.834s5.257-.01 3.914-5.908c-1.346-5.898-6.342-12.772-17.657-10.213l13.744 16.12Z" fill="#f9b8b2" fill-rule="evenodd" data-name="Path 4975"/></g></g></g></g></g></g><defs><clipPath id="a"><path d="M71.848 249.467s-4.883-20.247 13.688-33.586c23.089-16.58 67.123-4.617 82.656 13.435 0 0 10.285 10.495 9.655 21.829l-105.999-1.678Z" data-name="Path 4969" transform="translate(-71.268 -207.984)"/></clipPath></defs></svg>