<svg xmlns="http://www.w3.org/2000/svg" width="55.9" height="55.9" viewBox="12946.606 11151.658 55.9 55.9"><g data-name="Group 152"><path d="M12954.263 11201.13a1.102 1.102 0 0 0-1.542.192 1.09 1.09 0 0 0 .204 1.528l.014.014a1.119 1.119 0 0 0 1.542-.205c.355-.477.26-1.16-.218-1.528Zm0 0" fill="#7799dc" fill-rule="evenodd" data-name="Path 72"/><path d="M12954.263 11192.178a1.102 1.102 0 0 0-1.542.191 1.09 1.09 0 0 0 .204 1.529l.014.013c.205.15.437.232.669.232.327 0 .655-.15.873-.423a1.119 1.119 0 0 0-.218-1.542Zm0 0" fill="#7799dc" fill-rule="evenodd" data-name="Path 73"/><path d="M12954.263 11183.225a1.102 1.102 0 0 0-1.542.191 1.09 1.09 0 0 0 .204 1.529l.014.013a1.119 1.119 0 0 0 1.542-.204c.355-.478.26-1.16-.218-1.529Zm0 0" fill="#7799dc" fill-rule="evenodd" data-name="Path 74"/><path d="M12996.174 11201.13a1.104 1.104 0 0 0-1.542.205 1.09 1.09 0 0 0 .205 1.529l.014.014c.19.15.423.218.655.218.327 0 .655-.15.873-.437.369-.491.287-1.173-.205-1.528Zm0 0" fill="#7799dc" fill-rule="evenodd" data-name="Path 75"/><path d="M12996.174 11192.178a1.104 1.104 0 0 0-1.542.205 1.09 1.09 0 0 0 .205 1.528l.014.014c.19.15.423.218.655.218.327 0 .655-.15.873-.437.369-.49.287-1.173-.205-1.528Zm0 0" fill="#7799dc" fill-rule="evenodd" data-name="Path 76"/><path d="M12996.174 11183.225a1.104 1.104 0 0 0-1.542.205 1.09 1.09 0 0 0 .205 1.528l.014.014c.19.15.423.218.655.218.327 0 .655-.15.873-.436.369-.492.287-1.174-.205-1.529Zm0 0" fill="#7799dc" fill-rule="evenodd" data-name="Path 77"/><path d="M12986.949 11187.47h-.014c-.6 0-1.092.49-1.092 1.091 0 .6.492 1.092 1.092 1.092h.014c.6 0 1.092-.491 1.092-1.092 0-.6-.492-1.092-1.092-1.092Zm0 0" fill="#7799dc" fill-rule="evenodd" data-name="Path 78"/><path d="M12962.178 11196.422h-.013c-.6 0-1.092.492-1.092 1.092 0 .6.491 1.092 1.092 1.092h.013c.6 0 1.092-.491 1.092-1.092 0-.6-.491-1.092-1.092-1.092Zm0 0" fill="#7799dc" fill-rule="evenodd" data-name="Path 79"/><path d="M12955.423 11171.884a1.105 1.105 0 0 0-.778-.314c-.287 0-.573.123-.778.314a1.105 1.105 0 0 0 0 1.542c.205.205.478.314.778.314.286 0 .573-.11.778-.314.205-.205.314-.478.314-.764a1.01 1.01 0 0 0-.314-.778Zm0 0" fill="#7799dc" fill-rule="evenodd" data-name="Path 80"/><path d="M13001.415 11178.517h-4.53a6.494 6.494 0 0 0 3.275-5.637 6.517 6.517 0 0 0-3.576-5.814c.368-.832.56-1.733.56-2.66 0-3.577-2.921-6.497-6.497-6.497a6.43 6.43 0 0 0-3.18.832 7.5 7.5 0 0 0-4.353-1.378c-.11 0-.219 0-.314.014-1.16-3.358-4.381-5.719-7.998-5.719a8.478 8.478 0 0 0-7.615 4.79 7.493 7.493 0 0 0-.792-.04 8.439 8.439 0 0 0-7.779 5.158c-.232-.068-.464-.136-.71-.19.123-1.38.574-2.444 1.324-3.167.656-.628 1.324-.75 1.352-.764h-.014a1.05 1.05 0 0 0 .614-.3c.205-.205.314-.478.314-.765 0-.286-.123-.573-.314-.778a1.105 1.105 0 0 0-.778-.314c-.068 0-.123 0-.177.014-.655.096-1.529.464-2.348 1.201v-3.753c0-.6-.49-1.092-1.091-1.092h-2.634c-.6 0-1.092.492-1.092 1.092v4.08c-1.256-1.542-2.607-2.442-2.716-2.51a1.1 1.1 0 0 0-1.515.313 1.1 1.1 0 0 0 .314 1.515c.04.028 3.344 2.238 3.835 5.418-3.685 1.12-6.374 4.368-6.374 8.189 0 1.583.901 5.404 1.802 8.762h-.71c-.6 0-1.092.491-1.092 1.091v26.859c0 .6.492 1.092 1.092 1.092h53.717c.6 0 1.092-.492 1.092-1.092v-26.859c0-.6-.491-1.091-1.092-1.091Zm-35.02-19.912c.424 0 .847.04 1.256.123a1.081 1.081 0 0 0 1.242-.71 6.285 6.285 0 0 1 5.91-4.176c2.579 0 4.885 1.61 5.813 3.944-2.948 1.037-5.077 3.849-5.077 7.151 0 .6.492 1.092 1.092 1.092.6 0 1.092-.491 1.092-1.092a5.388 5.388 0 0 1 5.377-5.377c1.31 0 2.58.478 3.562 1.351a1.09 1.09 0 0 0 1.379.055 4.318 4.318 0 0 1 6.905 3.453c0 .941-.3 1.828-.846 2.58a1.092 1.092 0 0 0-.15 1.023c.123.34.41.6.764.696a4.308 4.308 0 0 1 3.262 4.176 4.322 4.322 0 0 1-4.313 4.312c-.273 0-.546-.027-.818-.081a1.092 1.092 0 0 0-1.229.71 3.244 3.244 0 0 1-.327.695h-1.379l4.477-6.414c.163-.246.232-.546.177-.833a1.098 1.098 0 0 0-.464-.71l-3.18-2.115a1.09 1.09 0 0 0-.846-.15 1.094 1.094 0 0 0-.696.505l-1.597 2.634 1.297-6.592a1.087 1.087 0 0 0-.846-1.282l-2.798-.587c-.287-.055-.587 0-.833.163-.245.164-.41.424-.464.71l-.354 1.91h-2.553c-.6 0-1.091.492-1.091 1.093v6.278a8.085 8.085 0 0 0-7.93-6.524c-1.774 0-3.452.56-4.858 1.624a8.075 8.075 0 0 0-2.62 3.412c.136-.819.204-1.447.204-1.897 0-1.474-.396-2.88-1.105-4.094a4.004 4.004 0 0 1 4.558-2.539 1.081 1.081 0 0 0 1.242-.71 4.044 4.044 0 0 1 1.174-1.72 1.087 1.087 0 0 0 .122-1.541 1.087 1.087 0 0 0-1.542-.123 6.307 6.307 0 0 0-1.46 1.829c-.11 0-.232-.014-.341-.014a6.177 6.177 0 0 0-5.24 2.907 9.04 9.04 0 0 0-1.734-1.31 6.289 6.289 0 0 1 5.786-3.835Zm20.13 19.106 4.109-6.81 1.31.874-4.709 6.742h-.873l.164-.806Zm-1.364-4.353v-3.03c0-.027.014-.04.014-.068l.914-4.913.628.123-1.556 7.888Zm-2.839 3.262c0-.041.014-.082.014-.123v-8.544h.641v10.564h-.34v-.205c0-.6-.11-1.16-.315-1.692Zm-14.971-5.09h-.096c1.065-1.652 2.935-2.73 4.968-2.73 2.88 0 5.295 2.088 5.8 4.817a4.505 4.505 0 0 0-3.671 1.938 8.109 8.109 0 0 0-7.001-4.026Zm5.786 6.987h-11.586c.518-2.73 2.92-4.804 5.786-4.804 2.866 0 5.295 2.074 5.8 4.804Zm4.914-2.703c1.323 0 2.401 1.12 2.401 2.498 0 .068 0 .136-.013.205h-4.79c0-.069-.014-.137-.014-.205.014-1.378 1.092-2.498 2.416-2.498Zm-22.806-21.972h.437v7.315c-.15 0-.286 0-.437.014v-7.33Zm-6.387 15.04c.069.013.137.027.205.027h5.404c.601 0 1.092-.492 1.092-1.092 0-.6-.491-1.092-1.092-1.092h-4.844c1.173-2.006 3.493-3.384 6.155-3.384 3.848 0 6.987 2.88 6.987 6.4 0 .287-.04.805-.218 1.774h-4.34c-.6 0-1.092.492-1.092 1.092 0 .6.491 1.092 1.092 1.092h3.63a8.019 8.019 0 0 0-2.484 4.804h-8.693c-1.188-4.435-1.87-7.615-1.87-8.748 0-.3.027-.587.068-.874Zm51.465 18.587h-9.608c-.6 0-1.091.492-1.091 1.092 0 .6.491 1.092 1.091 1.092h9.608v6.77h-34.432c-.601 0-1.092.49-1.092 1.091 0 .6.491 1.092 1.092 1.092h34.432v6.77h-51.533v-6.77h9.608c.6 0 1.092-.491 1.092-1.092 0-.6-.492-1.092-1.092-1.092h-9.608v-6.769h34.433c.6 0 1.092-.491 1.092-1.092 0-.6-.492-1.092-1.092-1.092h-34.433v-6.769h51.533v6.77Zm0 0" fill="#7799dc" fill-rule="evenodd" data-name="Path 81"/><path d="M12973.41 11157.554h-.013c-.6 0-1.092.491-1.092 1.092 0 .6.491 1.092 1.092 1.092h.013c.6 0 1.092-.492 1.092-1.092 0-.6-.491-1.092-1.092-1.092Zm0 0" fill="#7799dc" fill-rule="evenodd" data-name="Path 82"/></g></svg>