<svg xmlns="http://www.w3.org/2000/svg" width="74.294" height="61.104" viewBox="12730.243 11377.643 74.294 61.104"><g data-name="Group 153"><path d="M12757.205 11423.933h-2.598l3.216 10.525a.987.987 0 0 1-.65 1.235c-.098.032-.195.032-.292.032a.974.974 0 0 1-.942-.682l-3.411-11.077h-8.479l-3.15 11.174a.965.965 0 0 1-.943.715c-.097 0-.195 0-.26-.032-.52-.163-.844-.683-.682-1.202l3.281-11.63-4.58-15.138a.987.987 0 0 1 1.884-.584l4.418 14.683h13.188c.553 0 .975.454.975 1.007a.957.957 0 0 1-.975.974Zm0 0" fill="#7799dc" fill-rule="evenodd" data-name="Path 83"/><path d="m12796.414 11407.853-4.547 15.106 3.28 11.63a.958.958 0 0 1-.682 1.201c-.097.033-.195.033-.26.033-.422 0-.844-.293-.942-.715l-3.15-11.175h-8.48l-3.41 11.077a.974.974 0 0 1-.942.683c-.097 0-.195 0-.292-.033a.987.987 0 0 1-.65-1.234l3.216-10.525h-2.599c-.552 0-.974-.455-.974-1.007 0-.553.454-1.007.974-1.007h13.156l4.418-14.683a.987.987 0 0 1 1.235-.65c.52.227.78.78.65 1.3Zm0 0" fill="#7799dc" fill-rule="evenodd" data-name="Path 84"/><path d="M12777.443 11416.494h-9.42v-20.79c0-.552-.455-1.007-1.007-1.007-.552 0-.975.455-.975 1.007v20.79h-9.583c-.552 0-1.007.455-1.007.975 0 .552.455.974 1.007.974h9.583v12.474h-3.41c-2.08 0-2.99 2.21-3.184 3.541-.033.293.032.585.227.78a.971.971 0 0 0 .747.357h13.254c.293 0 .552-.13.747-.357.195-.195.26-.487.228-.78-.195-1.3-1.105-3.54-3.184-3.54h-3.443v-12.475h9.42c.553 0 1.007-.455 1.007-.974 0-.553-.454-.975-1.007-.975Zm-5.977 16.437c.358 0 .65.325.845.715h-10.558c.195-.39.488-.715.845-.715h8.868Zm0 0" fill="#7799dc" fill-rule="evenodd" data-name="Path 85"/><path d="M12799.695 11392.456c-.292-.618-7.341-14.813-32.29-14.813-24.948 0-31.997 14.195-32.257 14.813-.162.292-.13.65.065.942a.98.98 0 0 0 .845.454h62.728c.325 0 .65-.162.844-.454.163-.293.195-.65.065-.942Zm-61.915-.553c.91-1.332 2.63-3.378 5.392-5.425 4.223-3.118 11.857-6.854 24.234-6.854 19.003 0 27.124 8.771 29.593 12.28h-59.22Zm0 0" fill="#7799dc" fill-rule="evenodd" data-name="Path 86"/><path d="M12803.594 11438.746h-72.376a.977.977 0 0 1-.975-.974c0-.553.455-.975.975-.975h72.343c.552 0 .975.455.975.975.032.52-.423.974-.942.974Zm0 0" fill="#7799dc" fill-rule="evenodd" data-name="Path 87"/></g></svg>