<svg xmlns="http://www.w3.org/2000/svg" width="52.471" height="55.618" viewBox="13155.653 11151.657 52.471 55.618"><g data-name="Group 151"><path d="M13207.074 11151.657h-6.296c-.525 0-1.05.525-1.05 1.05h-31.482c0-.525-.524-1.05-1.05-1.05h-10.493c-.525 0-1.05.525-1.05 1.05v50.896c0 1.968 1.706 3.673 3.673 3.673 1.05 0 1.968-.394 2.624-1.05.656.656 1.574 1.05 2.623 1.05 1.968 0 3.673-1.705 3.673-3.673v-3.673h31.482v3.148c0 2.361 1.837 4.198 4.198 4.198 2.361 0 4.198-1.837 4.198-4.198v-50.371c0-.525-.525-1.05-1.05-1.05Zm-38.828 7.346h31.482v33.581h-31.482v-33.58Zm31.482-4.198v2.1h-31.482v-2.1h31.482Zm-40.402 50.372c-.918 0-1.574-.656-1.574-1.574v-49.847h3.148v49.847c0 .918-.656 1.574-1.574 1.574Zm6.821-1.574c0 .918-.655 1.574-1.574 1.574-.918 0-1.574-.656-1.574-1.574v-49.847h3.148v49.847Zm2.1-5.772v-3.148h31.481v3.148h-31.482Zm37.778 5.247c0 1.18-.918 2.099-2.099 2.099a2.072 2.072 0 0 1-2.099-2.099v-49.322h4.198v49.322Zm0 0" fill="#7799dc" fill-rule="evenodd" data-name="Path 59"/><path d="M13171.394 11167.398c.263 0 .525-.13.788-.262l3.148-3.148a1.03 1.03 0 0 0 0-1.443 1.03 1.03 0 0 0-1.443 0l-3.148 3.148a1.03 1.03 0 0 0 0 1.443c.13.131.393.262.655.262Zm0 0" fill="#7799dc" fill-rule="evenodd" data-name="Path 60"/><path d="m13179.003 11162.414-8.396 8.395a1.03 1.03 0 0 0 0 1.443c.263.262.525.262.787.262.263 0 .525-.131.788-.262l8.395-8.264a1.03 1.03 0 0 0 0-1.443c-.394-.525-1.18-.525-1.574-.131Zm0 0" fill="#7799dc" fill-rule="evenodd" data-name="Path 61"/></g></svg>